<svg width="23" height="13" fill="none" xmlns="http://www.w3.org/2000/svg"><path fill="#1E1E1E" d="M0 0h23v13H0z"/><g clip-path="url(#a)"><path fill="#fff" d="M-1517.49-6877h1920V105h-1920z"/><path fill="#F1F1F1" d="M-1517.49-101h1920v205h-1920z"/><path d="M1.01.297A.724.724 0 0 0 .765.48a.709.709 0 0 0-.103.27c-.012.102.005.315.047.533.039.201.15.602.244.897.094.295.243.717.333.94.09.222.282.666.423.982.145.316.418.862.61 1.217.192.35.461.832.602 1.067a35.746 35.746 0 0 0 1.345 2.05c.201.282.521.705.714.94.196.234.58.649.858.918.282.273.67.619.871.777.2.153.525.384.726.516.2.129.547.33.769.449a9.766 9.766 0 0 0 1.558.636c.188.056.564.141.833.188.346.06.688.085 1.153.085.461 0 .752-.021.96-.068.167-.038.36-.107.428-.15a.709.709 0 0 0 .192-.179c.051-.08.068-.354.085-1.528.022-1.316.03-1.444.107-1.602a.578.578 0 0 1 .192-.226c.069-.034.21-.051.385-.039.196.009.358.052.555.146.153.072.435.243.627.38.193.14.547.427.79.64.244.21.825.799 1.299 1.303.568.606.948.973 1.131 1.097.15.098.342.197.423.213.081.018.794.03 1.58.03 1.396 0 1.435-.004 1.636-.098a.725.725 0 0 0 .286-.235.664.664 0 0 0 .085-.32c0-.098-.03-.269-.068-.384a3.989 3.989 0 0 0-.244-.5 8.493 8.493 0 0 0-.482-.705 21.222 21.222 0 0 0-.773-.939 50.556 50.556 0 0 0-1.35-1.443c-.486-.496-.913-.965-.948-1.034a.756.756 0 0 1-.064-.277c0-.081.039-.222.082-.312.042-.085.209-.342.371-.564.158-.222.568-.828.914-1.345.346-.516.807-1.238 1.025-1.601.218-.363.508-.884.645-1.153.132-.27.281-.606.328-.747.052-.141.103-.333.116-.427a.56.56 0 0 0-.039-.333c-.051-.12-.115-.18-.26-.244-.184-.081-.274-.085-1.717-.077l-1.529.013c-.299.175-.427.286-.478.359-.056.072-.226.405-.38.739-.154.337-.389.81-.521 1.059-.132.247-.363.657-.512.918-.154.256-.427.691-.611.96a17.17 17.17 0 0 1-.692.94 6.924 6.924 0 0 1-.645.705c-.158.14-.358.298-.444.35a1.063 1.063 0 0 1-.307.12.32.32 0 0 1-.244-.043.592.592 0 0 1-.17-.205c-.069-.124-.077-.372-.099-2.827C13.393.856 13.384.609 13.32.48a.545.545 0 0 0-.226-.2C12.97.224 12.62.216 10.886.216L8.824.21c-.23.154-.333.27-.372.36-.055.114-.068.196-.042.294.02.077.153.294.294.482.145.188.312.449.372.577.06.128.14.367.183.534.069.269.077.52.077 2.39 0 1.56-.013 2.136-.051 2.251a.511.511 0 0 1-.15.227.477.477 0 0 1-.213.064.695.695 0 0 1-.278-.081 2.392 2.392 0 0 1-.392-.287 6.136 6.136 0 0 1-.509-.55c-.153-.188-.435-.581-.627-.876-.192-.294-.47-.747-.61-1.003A27.914 27.914 0 0 1 5.287 2.03c-.128-.33-.29-.743-.354-.919A3.186 3.186 0 0 0 4.682.6a1.14 1.14 0 0 0-.278-.278c-.14-.08-.226-.085-1.687-.098C1.278.216 1.167.22 1.01.297Z" fill="#000" opacity=".3"/></g><defs><clipPath id="a"><path fill="#fff" transform="translate(-1517.49 -6877)" d="M0 0h1920v6982H0z"/></clipPath></defs></svg>