<svg width="53" height="62" fill="none" xmlns="http://www.w3.org/2000/svg"><path fill-rule="evenodd" clip-rule="evenodd" d="M29.276.17c.021 0 .038.032.038.064 0 .038-.108.215-.247.393a4.99 4.99 0 0 0-.344.51c-.054.102-.15.344-.215.537-.081.237-.13.543-.145.94-.022.355-.006.774.037 1.048.032.253.124.65.199.887.075.236.21.596.306.806.097.21.312.596.484.86.215.327.532.698.994 1.155.424.419.897.827 1.268 1.08.322.226 1.247.79 2.042 1.257.8.462 1.72 1.021 2.041 1.236.323.215.774.532.994.71.22.176.634.563.914.854.28.295.677.736.881.988.204.253.543.726.758 1.048.215.322.553.919.747 1.316.193.398.462 1.054.59 1.451.135.398.296.978.355 1.29.102.505.113.693.092 1.773-.022 1.09-.038 1.262-.167 1.746a9.888 9.888 0 0 1-.285.913 7.06 7.06 0 0 1-.274.645c-.07.145-.258.462-.413.699a6.35 6.35 0 0 1-.613.763 7.368 7.368 0 0 1-1.36 1.069c-.085.043-.15.064-.15.048s.048-.091.102-.177c.06-.08.178-.3.269-.494.091-.194.215-.543.274-.78.07-.279.118-.709.14-1.235.021-.527.01-.973-.027-1.29a12.26 12.26 0 0 0-.188-.967c-.07-.269-.226-.736-.35-1.048-.123-.311-.349-.779-.5-1.047a9.57 9.57 0 0 0-.553-.86c-.15-.21-.467-.586-.704-.844-.23-.252-.644-.65-.908-.886a22.108 22.108 0 0 0-.886-.72c-.22-.167-.704-.505-1.075-.758-.37-.247-1.058-.715-1.531-1.037a41.245 41.245 0 0 1-1.397-.989c-.296-.225-.73-.575-.967-.784a11.728 11.728 0 0 1-.85-.86 13.232 13.232 0 0 1-.784-1.02 13.406 13.406 0 0 1-.64-1.048 10.9 10.9 0 0 1-.494-1.075 15.281 15.281 0 0 1-.403-1.182c-.096-.339-.22-.94-.279-1.333-.054-.408-.118-.703-.15-.693-.027.011-.215.371-.414.796a14.644 14.644 0 0 0-.575 1.445c-.123.37-.269.903-.322 1.182-.06.28-.135.763-.172 1.075a6.333 6.333 0 0 0-.027 1.047c.021.269.07.667.107.887.038.22.28 1.01.543 1.746.258.736.57 1.709.698 2.15.13.44.29 1.095.366 1.45.075.355.177.946.23 1.317.065.462.092.994.092 1.719 0 .704-.032 1.23-.091 1.612-.048.311-.161.843-.253 1.182-.091.338-.274.887-.403 1.209-.134.322-.365.822-.515 1.101-.15.28-.414.715-.58.968-.167.252-.457.644-.64.875-.177.226-.49.591-.683.8-.198.216-.639.656-.983.979-.57.532-.677.607-1.279.897-.365.177-.838.37-1.44.548l-.59-.35a20.05 20.05 0 0 0-1.102-.606 10.5 10.5 0 0 0-1.128-.462c-.339-.113-.86-.258-1.156-.317-.419-.092-.806-.124-2.955-.183l-.204-.43a3.64 3.64 0 0 1-.263-.811 2.256 2.256 0 0 1 0-.806c.037-.237.134-.575.215-.752.086-.178.258-.468.392-.64.129-.177.408-.462.612-.634.248-.21.618-.435 1.075-.66.387-.189.93-.41 1.209-.49.473-.134.607-.145 1.773-.172 1.01-.016 1.349-.005 1.693.065.236.043.623.145.86.22.236.08.612.231.832.344.22.108.554.3.742.425.182.123.462.354.617.51.151.156.366.414.479.575.107.161.247.43.311.59.065.162.135.323.162.35.032.032.07-.005.107-.107.032-.086.107-.44.167-.78a12.757 12.757 0 0 0 .107-2.955c-.032-.338-.107-.87-.166-1.182-.06-.311-.183-.833-.274-1.155-.092-.322-.301-.93-.463-1.343a37.68 37.68 0 0 0-.908-1.977 35.576 35.576 0 0 1-.773-1.623c-.086-.22-.237-.661-.323-.983a9.85 9.85 0 0 1-.252-1.381c-.08-.693-.08-.903-.027-1.505.037-.381.102-.881.15-1.101.049-.22.167-.656.269-.967.102-.312.317-.833.473-1.156.16-.322.5-.908.757-1.29.258-.38.602-.864.769-1.074.166-.21.704-.774 1.192-1.262a24.176 24.176 0 0 1 1.586-1.44c.386-.301 1.112-.833 1.611-1.177.506-.344 1.183-.769 1.505-.935.328-.172.607-.317.634-.317Zm-2.611 10.703a21 21 0 0 1 .155.527c.076.28.205.655.285.832.08.178.264.506.403.726.145.22.371.537.505.698.135.162.317.371.409.457.091.086.295.28.462.425.161.145.548.43.86.634.311.21 1.17.671 1.907 1.037 1.155.57 1.413.72 1.827 1.064.268.22.623.574.8.795.172.22.43.64.575.935.145.295.328.779.409 1.074.14.5.145.607.145 1.531-.006.667-.038 1.161-.097 1.505-.048.28-.15.725-.226.994-.075.269-.188.623-.252.8-.065.173-.135.323-.156.334-.027.01-.054-.08-.07-.204-.016-.13-.054-.51-.08-.85-.033-.338-.108-.86-.167-1.155a13.42 13.42 0 0 0-.29-1.101c-.102-.312-.247-.71-.328-.887a5.874 5.874 0 0 0-.43-.763 6.136 6.136 0 0 0-.71-.86c-.305-.31-.606-.537-1.165-.87a59.87 59.87 0 0 1-1.29-.811c-.295-.199-.72-.505-.94-.682-.22-.178-.618-.549-.881-.828a9.348 9.348 0 0 1-.774-.962 6.4 6.4 0 0 1-.43-.752 13.6 13.6 0 0 1-.263-.672c-.07-.21-.161-.58-.204-.832-.048-.258-.08-.785-.08-1.226 0-.419.015-.8.037-.843.021-.048.043-.08.054-.07Zm1.59 8.371c.065 0 .258.038.43.081.167.043.457.145.645.22.182.075.537.274.79.44.252.173.612.463.805.656.194.194.436.473.532.618.103.15.27.452.371.672.102.22.215.559.258.752.038.194.097.688.13 1.102.037.413.106.983.16 1.262.054.28.15.656.22.833.076.178.248.516.398.752.145.237.409.58.586.758.236.242.451.392.784.553.333.162.618.253 1.048.333.328.06.602.119.618.135.016.016-.06.107-.161.193a5.434 5.434 0 0 1-.484.355 4.522 4.522 0 0 1-.645.328c-.322.123-.419.134-2.015.14l-.88-.377c-.785-.333-.925-.413-1.231-.698a5.242 5.242 0 0 1-.58-.645 5.057 5.057 0 0 1-.393-.688 6.948 6.948 0 0 1-.279-.752c-.102-.35-.118-.591-.156-2.482-.037-1.553-.07-2.193-.129-2.472a7.966 7.966 0 0 0-.22-.752 4.203 4.203 0 0 0-.43-.822 5.59 5.59 0 0 1-.296-.468c0-.016.054-.027.124-.027ZM1.105 28.97c.032 0 .843.451 1.816 1a92.617 92.617 0 0 0 2.24 1.235c.27.129.64.274.833.322.264.07.5.08.968.06.435-.022.714-.06.94-.14.177-.065.71-.334 1.182-.597a25.686 25.686 0 0 1 1.263-.66c.22-.103.634-.259.913-.35.28-.086.752-.204 1.048-.258.381-.07.79-.097 1.397-.097a12.77 12.77 0 0 1 1.316.076c.253.032.656.123.903.193.242.07.666.215.94.317.269.102.881.42 1.354.699.564.338 1.01.558 1.29.65.236.075.602.15.806.166.241.022.532 0 .806-.053.36-.07.671-.21 1.907-.833.811-.414 1.698-.822 1.961-.914.269-.091.672-.198.903-.247.226-.048.66-.113.967-.145.414-.048.758-.048 1.408 0a8.947 8.947 0 0 1 1.386.194c.285.075.73.214.994.317.258.096.575.23.71.3.134.065.59.334 1.02.592.43.257.935.526 1.129.596.279.097.472.123.94.123.478.006.655-.016.94-.112.194-.065.57-.258.833-.425.269-.166.64-.397.833-.51.193-.113.542-.28.779-.376.236-.092.66-.231.94-.307.457-.118.618-.134 1.532-.134.79-.005 1.117.016 1.45.091.237.054.602.156.806.231.205.076.548.215.752.317.205.097.618.339.914.538.296.199.672.424.833.494.161.075.419.167.564.21.15.037.473.07.725.07.253 0 .608-.038.796-.081a3.65 3.65 0 0 0 .617-.22c.15-.081 1.053-.57 2-1.096.945-.522 1.848-1.016 2.003-1.097.15-.075.29-.134.301-.129.011.011-.037.285-.107.608-.075.322-.629 2.686-1.236 5.25-.602 2.567-1.085 4.69-1.07 4.717.017.026.157.091.312.14.15.048.446.177.65.284.21.108.554.36.78.57.22.204.478.494.57.644.096.146.236.441.322.645.08.204.166.51.198.672.033.199.033.467-.01.833a5.735 5.735 0 0 1-.22 1.02 5.522 5.522 0 0 1-.355.806c-.108.178-.473.737-.812 1.236-.338.5-.886 1.274-1.22 1.72a48.608 48.608 0 0 1-2.224 2.74 50.991 50.991 0 0 1-1.569 1.639 48.487 48.487 0 0 1-1.687 1.633c-.322.296-.93.806-1.343 1.14-.414.327-1.129.864-1.585 1.192-.457.328-1.172.806-1.585 1.064-.414.258-1.064.64-1.451.849-.382.21-1.048.537-1.478.736-.43.199-1.117.489-1.53.656-.415.16-1.016.381-1.344.483a30.2 30.2 0 0 1-1.317.376 24.56 24.56 0 0 1-2.66.543c-.295.048-.752.107-1.02.14-.264.026-1.295.053-2.284.053-1.284 0-2.01-.021-2.525-.086a28.188 28.188 0 0 1-1.505-.215c-.43-.075-1.128-.22-1.558-.322a25.22 25.22 0 0 1-1.692-.489c-.5-.161-1.225-.419-1.612-.57a30.962 30.962 0 0 1-1.961-.907 37.641 37.641 0 0 1-1.854-.984 51.15 51.15 0 0 1-1.29-.822 39.034 39.034 0 0 1-1.424-1.005 46.12 46.12 0 0 1-1.611-1.294 41.02 41.02 0 0 1-1.94-1.795A51.667 51.667 0 0 1 6.23 51.24c-.296-.328-.763-.87-1.048-1.209a50.588 50.588 0 0 1-2.155-2.794 79.834 79.834 0 0 1-1.096-1.612 21.178 21.178 0 0 1-.811-1.316 5.992 5.992 0 0 1-.333-.806 2.802 2.802 0 0 1-.113-.86c0-.268.027-.58.06-.698.031-.118.144-.398.252-.618.145-.296.311-.516.628-.844.376-.381.505-.473 1.048-.736.339-.166.65-.3.688-.3.032 0 .064-.038.064-.081 0-.043-.129-.667-.29-1.387-.161-.714-.596-2.595-.967-4.174-.365-1.58-.768-3.305-.887-3.832-.123-.52-.22-.961-.22-.977 0-.017.027-.027.054-.027Zm16.683 7.087a4.796 4.796 0 0 0-.644.166c-.205.07-.64.248-.968.393-.322.145-1.074.505-1.665.806-.591.295-1.677.86-2.418 1.262-.736.398-1.494.812-1.682.919-.183.108-.333.204-.333.22 0 .016.161.092.36.172.204.08.559.264.795.398.269.156.597.419.865.688.339.343.484.531.661.891.124.253.258.64.306.86.06.274.076.543.054.833a3.692 3.692 0 0 1-.134.752c-.06.178-.204.468-.317.645-.113.177-.301.42-.42.537a4.494 4.494 0 0 1-.558.457c-.194.129-.5.301-.682.387-.189.08-.527.199-.753.258-.23.059-.682.129-1.01.161-.322.027-1.144.054-1.827.054a35.38 35.38 0 0 1-1.934-.054 12.216 12.216 0 0 1-1.155-.14c-.253-.043-.462-.07-.468-.053-.01.016.097.193.237.392.134.204.494.677.79 1.064.295.387.72.913.94 1.182.22.268.66.773.978 1.128.311.355.612.677.66.71.07.058.119.053.264-.017.091-.048.741-.462 1.435-.924a230.06 230.06 0 0 0 2.525-1.692 80.211 80.211 0 0 0 2.31-1.64c.575-.43 1.28-.961 1.559-1.181.279-.226.736-.613 1.015-.865.28-.253.736-.715 1.015-1.027.285-.311.72-.843.973-1.182.253-.338.65-.918.881-1.29a18.627 18.627 0 0 0 1.21-2.283c.117-.268.3-.725.413-1.02l.199-.538c-.403-.36-.64-.57-.79-.698a3.755 3.755 0 0 0-.591-.393 4.585 4.585 0 0 0-.591-.242 4.313 4.313 0 0 0-.752-.107 4.759 4.759 0 0 0-.753.01Zm14.266.14c-.161.048-.44.15-.618.236-.177.08-.468.258-.645.392a4.219 4.219 0 0 0-.521.468c-.113.118-.204.268-.204.327 0 .06.086.344.193.629.108.29.36.876.57 1.306.204.43.537 1.058.741 1.397.2.338.554.886.785 1.22.236.327.623.838.86 1.128.241.29.687.768.993 1.064.307.295.839.768 1.177 1.042.339.28 1.032.817 1.532 1.187.505.376 1.31.957 1.8 1.3.489.34 1.687 1.15 2.66 1.795.977.65 2.213 1.462 2.756 1.811.838.537.988.618 1.069.559.048-.032.462-.462.919-.951a56.062 56.062 0 0 0 1.563-1.763 48.48 48.48 0 0 0 1.36-1.719c.349-.467.623-.854.607-.87-.011-.017-.269.026-.575.09-.306.065-.844.151-1.198.189-.355.038-1.333.065-2.176.065-1.21 0-1.66-.017-2.15-.097a6.915 6.915 0 0 1-.94-.2 7.806 7.806 0 0 1-.699-.29 4.554 4.554 0 0 1-.736-.483 3.009 3.009 0 0 1-.634-.714 3.97 3.97 0 0 1-.392-.763c-.091-.274-.118-.468-.113-.914 0-.483.022-.628.162-1.02.085-.253.257-.602.37-.78a4.67 4.67 0 0 1 .484-.586 8.51 8.51 0 0 1 .634-.537c.295-.22.354-.285.295-.338-.037-.033-.94-.538-2.004-1.118a122.98 122.98 0 0 0-3.6-1.88c-.978-.49-1.907-.914-2.256-1.027-.51-.172-.672-.204-1.183-.22-.413-.01-.677.01-.886.065Zm-8.463 1.155c-.204.053-.59.177-.86.268a6.11 6.11 0 0 0-.52.205c-.027.021-.183.386-.355.816-.178.43-.44 1.048-.597 1.37-.155.323-.403.806-.553 1.075-.15.269-.457.763-.677 1.102-.22.338-.623.907-.892 1.262-.269.35-.78.94-1.134 1.306-.354.37-.876.865-1.155 1.107-.28.247-.79.66-1.128.924a77.937 77.937 0 0 1-3.896 2.8 139.99 139.99 0 0 1-2.45 1.638c-.607.392-1.096.742-1.09.768.01.027.445.452.972.935.526.484 1.15 1.048 1.386 1.247a46.1 46.1 0 0 0 1.478 1.144c.575.43 1.08.785 1.117.785.033 0 .554-.403 1.155-.898.597-.489 1.521-1.268 2.053-1.724a88.61 88.61 0 0 0 1.8-1.596 50.26 50.26 0 0 0 1.505-1.462c.37-.376.768-.795.886-.93.118-.133.36-.413.543-.617.177-.21.414-.484.52-.618l.2-.242c-.371-.956-.516-1.38-.56-1.558a7.07 7.07 0 0 1-.139-.806 6.925 6.925 0 0 1-.021-.94c.016-.253.075-.726.129-1.048.053-.322.15-.725.21-.886.058-.162.182-.404.268-.538.086-.134.263-.35.392-.478.14-.145.425-.333.73-.484.49-.241.495-.252.522-.462.01-.118.043-.59.075-1.047.033-.49.102-1.01.167-1.263.059-.236.21-.607.322-.822.119-.21.215-.398.215-.414 0-.016-.054-.027-.118-.021-.07 0-.29.043-.5.102Zm2.58 0a2.76 2.76 0 0 0-.511.14 2.911 2.911 0 0 0-.446.23 1.358 1.358 0 0 0-.328.328c-.07.102-.177.36-.247.564-.07.21-.14.613-.166.914-.022.295-.043.795-.049 1.112v.58a312.885 312.885 0 0 0 2.418 3.358c.215.296.758 1.01 1.198 1.586.446.575 1.15 1.461 1.575 1.96.419.5.988 1.156 1.262 1.446.28.296.532.57.564.618.038.048.532.527 1.102 1.058a91.62 91.62 0 0 0 1.956 1.768c.505.435 1.348 1.15 1.88 1.585.532.43 1.258 1.016 1.612 1.3.355.28.774.597.93.704.28.2.28.2.456.108.092-.048.452-.274.79-.5.339-.225.919-.64 1.29-.913a31.276 31.276 0 0 0 1.88-1.5c.22-.187.543-.472.715-.628.167-.161.306-.317.306-.344 0-.027-.516-.387-1.139-.79a209.393 209.393 0 0 1-2.89-1.902 135.9 135.9 0 0 1-2.902-1.988 66.557 66.557 0 0 1-1.88-1.391 30.215 30.215 0 0 1-1.344-1.107 19.862 19.862 0 0 1-1.128-1.08 15.97 15.97 0 0 1-.983-1.15 21.415 21.415 0 0 1-.957-1.365 20.293 20.293 0 0 1-.978-1.746 26.285 26.285 0 0 1-.784-1.72l-.28-.725c-.935-.306-1.3-.419-1.418-.451a6.06 6.06 0 0 0-.726-.08c-.279-.012-.628-.006-.779.02ZM4.543 40.259a4.784 4.784 0 0 0-.833.155 7.57 7.57 0 0 0-.699.269 3.188 3.188 0 0 0-.618.414c-.16.15-.37.387-.467.532a2.956 2.956 0 0 0-.285.585 2.196 2.196 0 0 0-.118.618c-.005.172.043.446.107.645.065.193.21.494.323.672.113.177.35.451.526.612.172.156.473.376.667.478.193.108.542.264.779.344.236.08.72.183 1.074.231.49.07 1.059.092 2.365.092 1.332 0 1.826-.022 2.192-.086.258-.049.618-.14.806-.21.182-.064.473-.204.645-.306.171-.102.446-.323.607-.484.166-.16.365-.43.44-.59.13-.264.145-.36.145-.834 0-.446-.021-.585-.123-.806a3.695 3.695 0 0 0-.323-.532 3.141 3.141 0 0 0-.52-.51 5.146 5.146 0 0 0-.737-.446 6.556 6.556 0 0 0-.913-.338c-.274-.07-.753-.167-1.064-.21a42.27 42.27 0 0 0-1.639-.188 31.26 31.26 0 0 0-1.478-.124 7.8 7.8 0 0 0-.86.017Zm42.689.193c-.177.01-.854.08-1.505.156-.65.07-1.424.183-1.719.242a6.58 6.58 0 0 0-.913.258c-.205.08-.532.23-.726.338a3.989 3.989 0 0 0-.671.484 2.92 2.92 0 0 0-.468.558c-.08.145-.183.42-.236.613a1.924 1.924 0 0 0-.054.698c.021.205.097.473.177.645.08.161.28.43.44.602.227.226.43.365.812.543.28.134.656.284.833.327.177.049.698.113 1.155.146.473.037 1.376.048 2.096.032.693-.022 1.515-.07 1.827-.113.311-.043.757-.14.994-.22.236-.081.575-.232.752-.339a5.13 5.13 0 0 0 .64-.494c.171-.161.43-.49.574-.726.145-.236.301-.585.355-.779.075-.3.08-.392.021-.671a3.179 3.179 0 0 0-.193-.591 2.993 2.993 0 0 0-.344-.554 3.363 3.363 0 0 0-.527-.505 3.52 3.52 0 0 0-.607-.344 5.555 5.555 0 0 0-.618-.199c-.177-.043-.65-.09-1.047-.107-.398-.01-.87-.01-1.048 0Zm-23.889 1.682c-.22.113-.484.295-.59.408a2.204 2.204 0 0 0-.313.532 7.676 7.676 0 0 0-.204.699c-.048.225-.086.682-.091 1.155-.006.59.016.88.097 1.209.053.236.188.645.3.913.113.269.452 1.026.753 1.693.3.666.677 1.477.833 1.8.193.386.478.838.838 1.316.3.398.972 1.257 1.494 1.902.52.65 1.316 1.617 1.773 2.15a43.127 43.127 0 0 0 1.94 2.073c.607.608 1.3 1.274 1.53 1.483l.43.382c1.543-.473 2.241-.699 2.553-.811.311-.113.988-.398 1.504-.63a39.14 39.14 0 0 0 1.478-.708c.295-.156.537-.307.537-.339 0-.032-.58-.526-1.29-1.096-.709-.575-1.568-1.268-1.907-1.553a106.35 106.35 0 0 1-1.504-1.29 71.516 71.516 0 0 1-1.682-1.53 45.623 45.623 0 0 1-1.596-1.618 56.046 56.046 0 0 1-1.22-1.37c-.23-.28-.677-.828-.988-1.21-.307-.386-.924-1.181-1.37-1.772a196.84 196.84 0 0 1-1.849-2.526c-.57-.795-1.037-1.456-1.042-1.456-.01-.005-.194.08-.414.194Zm-1.585 7.533c-.29.333-.822.908-1.177 1.273-.354.366-.994.994-1.424 1.397-.43.403-.88.817-.994.919-.118.108-.564.494-.994.865-.43.37-1.203 1.026-1.719 1.456-.516.43-1.026.855-1.128.946-.102.086-.178.172-.162.188.017.01.258.161.538.328.28.172 1.07.58 1.746.919.682.333 1.515.72 1.854.848.338.135.865.328 1.171.436l.548.193c1.746-1.73 2.257-2.273 2.257-2.327 0-.048-.102-.29-.22-.537a17.135 17.135 0 0 1-.425-.897 5.223 5.223 0 0 1-.29-.876 5.414 5.414 0 0 1-.086-.924c0-.28.038-.688.086-.903.048-.21.145-.51.215-.655.07-.15.258-.398.435-.564.208-.197.46-.362.758-.495.241-.113.467-.204.494-.204.032 0 .054-.016.054-.043a36.382 36.382 0 0 0-.446-.972c-.242-.516-.468-.946-.5-.957-.032-.01-.295.253-.591.586Zm1.526 2.396c-.199.08-.451.215-.564.306a1.48 1.48 0 0 0-.323.43 3.534 3.534 0 0 0-.182.672c-.043.306-.043.505.005.833.038.236.14.634.231.886.091.253.398.914.683 1.478.284.564.65 1.252.805 1.531.156.28.468.822.694 1.204.225.376.473.763.548.86l.145.166c2.471-.005 3.374-.032 3.664-.07.28-.037.8-.107 1.155-.15.355-.049.672-.108.699-.135.032-.026-.424-.515-1.16-1.24a57.755 57.755 0 0 1-1.618-1.656 107.115 107.115 0 0 1-2.945-3.568c-.488-.617-.983-1.246-1.106-1.396-.118-.15-.253-.28-.296-.285-.043-.01-.236.054-.435.134Zm-1.36 6.835c-.445.44-.795.816-.779.827.017.016.355.102.753.188.397.092.956.2 1.236.247.279.043.574.092.66.108.13.021.14.01.119-.097-.017-.064-.269-.559-.565-1.101-.295-.538-.553-.978-.58-.978-.021 0-.403.36-.843.806Z" fill="#fff"/></svg>