<svg width="1550" height="1665" fill="none" xmlns="http://www.w3.org/2000/svg"><path fill-rule="evenodd" clip-rule="evenodd" d="M791.9 175.193c2 .3 28.6 4.2 59.1 8.7 30.5 4.4 73 10.7 94.5 13.9 21.5 3.3 39.5 6.4 40 6.9.667.667-.2 2.433-2.6 5.3-2 2.4-8.3 9.5-13.9 15.8-5.7 6.4-12.2 15-14.6 19.2-2.4 4.3-5 7.6-5.6 7.5-.7-.2-1.6-1.7-2-3.3-.4-1.6-1.4-7.2-2.4-12.4-.9-5.2-2.6-12.4-3.7-16-1.1-3.6-3.1-8.2-4.6-10.4-1.4-2.1-4.2-5-6.1-6.4-2.6-1.9-6.1-3-13.5-4.3-5.5-.9-10.3-1.4-10.7-1-.4.3-2.6 12.8-4.8 27.6-2.2 14.8-8.7 58.5-14.4 97-5.7 38.5-11.2 75.5-12.3 82.3-1.6 10.9-1.6 12.4-.3 13.2.8.5 2.6 1 4 1s3.3.5 4.3 1.2c1.1.8 1.7 2.1 1.5 3.3-.3 1.4-1.1 1.9-2.8 1.8-1.4-.1-14-1.9-28-3.9-14.8-2.1-26.1-4.2-27-5-1-.8-1.2-1.9-.7-3.1.7-1.6 1.5-1.7 12.2-.2l9.9-66.3c5.4-36.5 12.7-85.9 16.2-109.8 3.5-23.9 6.4-43.8 6.4-44.3 0-.4-2.8-1.1-6.2-1.7-3.5-.5-8.4-1-11-1-3.2 0-6.6.9-10 2.6-2.9 1.5-8 5.4-11.3 8.8-3.3 3.4-8.9 10.4-12.5 15.6-3.6 5.2-7.2 9.5-7.9 9.5-.8 0-1.8-1.1-2.2-2.5-.4-1.4-2.1-7-3.8-12.5-2-6.4-5.6-14.5-10.1-22.5-3.8-6.9-6.9-13.1-6.9-13.8.1-1 1.1-1.2 3.8-.8Zm-177.4 18.2c5.2.3 12 1.5 16 2.8 3.9 1.2 9.2 3.8 12 5.6 2.7 1.9 6 4.6 7.3 6 1.3 1.4 4 5.1 6 8.4 3.5 5.6 3.8 5.8 7 5.2 1.7-.3 3.9-.4 4.7-.1.8.3 1.5 1.1 1.5 1.7 0 .8-4.2 2.5-10.2 4.2-5.7 1.6-17.3 5.3-25.8 8.3-8.5 2.9-16.2 5.1-17 4.8-1.3-.4-1.2-.9.5-2.6 1.1-1.2 3.2-2.8 4.8-3.7 1.7-1.1 2.7-2.6 2.7-4 0-1.2-1.2-4.7-2.7-7.8-1.6-3.1-4.8-7.5-7.3-9.9-2.5-2.3-6.9-5.4-9.7-6.8-4.3-2.2-6.7-2.7-12.5-2.7-6.3 0-8.3.5-14.8 3.6-5.3 2.6-9.3 5.5-13.7 10-3.9 3.9-7.5 8.8-9.3 12.6-1.6 3.5-3.4 9-4.1 12.3-.6 3.4-.9 9.7-.6 14.5.3 4.7 1.6 12.1 2.7 16.5 1.2 4.4 4 12.7 6.1 18.5 2.2 5.8 5.8 14.7 7.9 19.7 2.2 5.1 4.3 9.3 4.8 9.3.4 0 2.8-4.4 5.4-9.8 2.6-5.3 6.6-12.6 8.9-16.2 2.3-3.6 6.3-8.9 8.8-11.8 2.5-3 7.5-7.7 11.1-10.7 3.6-2.9 9.2-6.6 12.5-8.3 3.3-1.6 8.5-3.5 11.5-4.2 3-.7 8.4-1.1 12-.9 4.7.3 8.3 1.3 13 3.6 4.7 2.3 8.5 5.3 14 11 5.7 6 8.4 9.9 11.7 16.8 2.3 4.9 4.9 12.1 5.8 16 .9 3.8 1.8 7.8 2 8.7.3 1.2 1.8 2 4.3 2.4 2 .3 4.4.9 5.2 1.4 1 .6 1.2 1.2.5 1.8-.5.5-6 1.9-12 3.1-6 1.1-17.6 4-25.7 6.3-8.1 2.4-15.1 4-15.5 3.6-.5-.4-.1-1.5.7-2.4.8-.9 3.2-2.6 5.3-3.8 2-1.1 3.9-2.5 4.1-3.1.2-.6-.9-5.1-2.4-10-1.4-4.9-3.6-11-4.8-13.5-1.1-2.5-4.5-7-7.4-10.1-3.3-3.4-6.8-6-9.3-6.8-2.3-.8-5.9-1.1-8.5-.8-2.5.3-7 1.5-10 2.8-3 1.2-7.7 3.8-10.3 5.8-2.7 2-7.5 7-10.8 11.1-3.2 4.1-8.1 11.6-15.9 25.5l4 10c2.2 5.5 5.6 14.7 7.5 20.5 1.8 5.8 4.1 14.3 5 19 1.1 5.9 1.6 14.1 1.6 27-.1 10.2-.4 20-1.6 25.3l3.5-.8c1.9-.4 5.8-1.6 8.5-2.6 2.8-1 7.7-3.6 11-5.7 3.3-2.2 9.5-7.7 13.8-12.3 5-5.3 9.1-10.8 11-14.9 2.4-4.9 3.3-8.2 4-20.5l-4.6-3c-2.6-1.6-4.9-3.9-5.2-5-.4-1.1-.5-2.1-.3-2.3.2-.2 5.3.6 11.3 1.8 6 1.1 19.1 2.6 29 3.1 9.9.6 19 1.3 20.3 1.5 1.2.2 2.2 1.1 2.2 1.9 0 .9-1.5 1.9-3.7 2.5-2.1.5-4.4 1-5 1-.7 0-2.2 1.2-3.4 2.7-1.1 1.6-4.8 7-8.2 12.2-3.4 5.2-9.3 12.8-13.2 16.9-3.8 4.1-10.1 9.4-14 11.8-3.8 2.3-11 5.8-16 7.8-5 1.9-14.2 4.6-20.5 6-6.3 1.4-15.3 2.9-20 3.3-8.2.6-8.6.6-10.2-1.8-1.1-1.5-2-6.3-2.7-13.4-.6-6.1-1.7-13.3-2.5-16-.7-2.8-2.3-7.5-3.6-10.5-1.2-3-3.8-8.2-5.8-11.5-2-3.3-7.7-12.5-12.7-20.5-5-8-11.9-19.4-15.3-25.5-3.4-6.1-7.5-14.4-9.1-18.5-1.6-4.1-4.2-11.6-5.7-16.5-2.3-7.6-2.8-11.4-3.2-24-.3-11.8-.1-16.4 1.2-21.5.9-3.6 3.1-9.7 4.9-13.5 1.8-3.9 4.9-9.3 6.8-12 1.8-2.8 5.9-7.4 8.9-10.4 3-2.9 8-6.9 11-8.9s8.7-5 12.5-6.8c3.9-1.8 11-4.4 16-5.8 5-1.4 12.2-3 16-3.5 3.9-.5 11-.7 16-.5Zm530.5 93.8c16.1.3 19.7.7 28 3 5.2 1.4 10 3 10.5 3.6.7.7-.1 4.4-2.3 11.3-1.8 5.6-3.7 13.8-4.2 18.2-.5 4.4-1.4 17.9-2 30-.6 12.1-1.5 27.6-2.1 34.5-.6 6.9-1.7 16.2-2.5 20.7-.8 4.6-3 12.7-4.9 18-1.9 5.4-5.6 13.3-8.3 17.6-2.6 4.3-7.4 10.5-10.7 13.8-3.3 3.2-8.2 7.5-11 9.5-2.7 2-7.9 5.1-11.5 6.9-3.6 1.8-10.1 4.5-14.5 6.1-7.7 2.7-8.7 2.8-31.5 3.2-21.2.3-24.4.1-33-1.8-5.2-1.2-10.1-2.6-10.7-3.1-1-.7-.6-2.9 1.7-9.9 1.7-4.9 3.4-12.9 3.9-17.8.5-4.8 1.2-15.5 1.6-23.7.3-8.3 1-22.2 1.6-31 .5-8.8 1.4-19.4 2-23.5.6-4.1 1.7-10.6 2.6-14.5.9-3.8 2.8-10.2 4.3-14 1.5-3.8 4.5-9.9 6.5-13.5 2.1-3.6 6.1-9.4 8.9-12.8 2.8-3.5 8.3-8.8 12.1-11.7 3.8-2.9 10.2-6.9 14-8.8 3.8-1.9 9.9-4.5 13.5-5.7 3.6-1.2 9.4-2.8 13-3.5 4.7-1 11.7-1.3 25-1.1Zm-793 6.7c3 .3 7.8 1.8 10.5 3.1 2.8 1.4 7 4.8 9.5 7.4 2.4 2.7 5.5 7.4 6.9 10.4 1.4 3.3 2.6 8.1 2.9 12 .3 4.6 0 8.1-1.3 12-1 3-3.4 7.9-5.4 10.9-2 3-5.8 7.4-8.6 9.9-2.7 2.4-7.4 6.1-15.7 11.7l.7 21.5c.3 11.8.7 21.6.8 21.7.1.2 18.7-1.7 41.2-4.2 32.1-3.5 41.3-4.2 42.2-3.2.7.7 9.8 14.9 20.2 31.7 10.5 16.8 19.4 31.1 19.8 31.8.6.9 2 .4 5.7-2 4.8-3.2 4.9-3.3 6.2-1.3.8 1.1 1.4 2.4 1.4 3-.1.6-25.6 16.6-56.8 35.8-31.2 19.1-58.2 35.6-63.2 38.7l-1.2-2.6c-1.2-2.4-1.1-2.8 1.1-4.3 1.4-.9 3.4-2.3 4.5-3.2 1.8-1.4 1.9-2.1 1-4-.6-1.3-20.7-34.3-44.6-73.4-23.9-39.1-47.5-77.7-52.4-86-8.8-14.8-8.9-15-8.9-21.5.1-5.3.7-7.6 3.2-12.5 1.8-3.4 5.8-8.6 9.5-12.1 3.5-3.4 9-7.9 12.3-10.2 3.3-2.2 11-6.5 17-9.5 6.1-3.1 14.1-6.8 18-8.2 3.9-1.5 9.5-3 12.5-3.3 3-.4 7.9-.5 11-.1Zm993.3 113.7c.6.4 3.3 2.9 5.8 5.7 2.6 2.7 11.1 12.4 33 38l-4.1 4-8.5-8.4-3 2.6c-1.7 1.4-6.2 5.3-10 8.8-3.8 3.4-19.6 17.3-35 31-15.4 13.6-28.9 25.6-30 26.5-2 1.8-1.9 2 5.6 15.7 4.2 7.6 9 16.9 10.8 20.8 1.7 3.9 4.6 10.8 6.4 15.4 1.7 4.6 3.7 8.6 4.2 8.8.6.2 8.9-6.5 18.5-14.9 9.7-8.4 30.7-27 76-67.3l-8.5-8.4 4-4.1 2.8 2.7c1.6 1.6 10.4 11.3 19.5 21.6 9.2 10.4 16.7 19.3 16.7 19.9 0 .6-.8 1.6-1.7 2.2-1.4.9-2.4.4-5.5-2.6-2.1-2.1-4.1-3.8-4.5-3.8-.5 0-37.6 32.7-82.5 72.6-45 40-82.4 73.2-83.1 73.8-1 .9-.4 2 2.5 5.5 3.1 3.5 3.6 4.6 2.7 6-.6.9-1.7 1.6-2.5 1.6-.7 0-10-9.7-39.8-43l4.4-4.4 8 9 25-22.1c13.8-12.2 28.5-25.6 32.7-29.8 6.6-6.6 7.7-8.1 7.2-10.2-.4-1.4-2.9-8.6-5.6-16-2.7-7.4-7-17.3-9.5-22-2.5-4.7-9.4-16.1-15.3-25.5-5.9-9.4-11.5-18.6-14.3-24l10.4-10c5.7-5.5 23.8-21.8 40.2-36.3 16.3-14.4 29.7-26.5 29.7-26.9.1-.5-.7-1.5-1.6-2.3-.9-.8-2.5-2.7-3.5-4.3-1.8-2.5-1.8-2.9-.3-4.7.9-1.1 2.1-1.6 2.7-1.2ZM139 478.393c5.2.2 12 1.1 15 1.9 3 .8 9.9 3.1 25.3 9l3.1-3.7c1.7-2.1 3.8-3.7 4.6-3.7.8-.1 2.2.3 3 .8 1.2.8.4 2.3-4.5 8.8-3.2 4.3-11.5 14.8-18.4 23.3-6.9 8.5-13.3 16.3-14.3 17.3-1.4 1.3-2.3 1.5-3.8.7-1.1-.6-2-1.3-2-1.8.1-.4 1.6-2.8 7-10.2l-6.7-4.4c-3.8-2.4-9.7-5.8-13.3-7.6-3.6-1.8-9.3-4.3-12.7-5.6-3.5-1.3-9.1-2.8-12.5-3.4-4.3-.6-7.7-.6-10.6.2-3.1.7-5 2-6.5 4.2-1.2 1.8-2.3 5.2-2.5 8.1-.3 3.4.3 7.1 1.8 11.5 1.2 3.6 3.6 9.2 5.5 12.5 1.8 3.3 5.9 9.6 9.2 14 3.2 4.4 11.6 13.9 18.5 21s16.5 16.4 21.2 20.5c4.8 4.1 12.9 10.6 18.1 14.5 5.1 3.9 15.8 10.6 23.7 15.1 7.8 4.5 21.7 12.2 30.8 17.3 9.1 5 20.2 11.9 24.8 15.1 4.5 3.3 8.3 6 8.5 6 .1 0 1.1-2.8 2.1-6.2 1.4-4.5 2-9.2 2-16.3 0-5.5-.6-12.7-1.3-16-.7-3.3-2.5-8.7-4-12-1.5-3.3-4.1-8-5.8-10.5-1.6-2.5-5.7-7.2-9-10.5-3.2-3.3-9.5-9.2-21.8-20.4l-8 10-2-2c-1.9-1.8-1.9-2.1-.4-4.3.9-1.3 9.8-12.5 19.8-25.1 16.2-20.3 18.3-22.6 20.1-21.7 1.1.6 2 1.6 2 2.2 0 .7-1.3 3.2-6 9.8l8.6 9.2c4.7 5.1 10.4 12 12.7 15.3 2.2 3.3 5.4 8.9 7 12.5 1.6 3.6 3.8 11 4.9 16.5 1.2 6 2 14.4 2 21 0 6.9-.6 14-1.7 19-.9 4.4-3.2 11.4-4.9 15.5-1.8 4.1-5.3 10.8-7.9 14.7-2.6 4-5.4 7.3-6.2 7.3-.8 0-4.8-1.4-8.7-3-4-1.7-9.8-3.7-12.8-4.5-3-.8-17.2-3-31.5-5-14.3-1.9-29.6-4.4-34-5.6-4.4-1.1-11.8-3.9-16.5-6-4.7-2.2-11.4-6.1-15-8.7-3.6-2.6-9.8-7.8-13.9-11.7-4-3.8-10.2-10.4-13.6-14.5-3.4-4.1-8.3-10.6-10.7-14.5-2.5-3.9-6.5-10.8-8.8-15.5-2.4-4.7-5.4-11.4-6.7-15-1.4-3.6-3.1-9.5-3.9-13.3-.8-3.7-1.4-11.1-1.4-16.5 0-5.6.6-12.2 1.6-15.7.8-3.3 2.5-7.6 3.6-9.5 1.2-1.9 4-5.8 6.3-8.5 2.3-2.8 7.3-7.4 11.1-10.2 3.9-3 9.9-6.4 13.9-7.8 3.8-1.4 9.3-3 12-3.5 2.8-.5 9.3-.7 14.5-.4Zm655.3 21.4c.4 0 .7.6.7 1.2 0 .7-2 4-4.6 7.3-2.5 3.3-5.4 7.6-6.4 9.5-1 1.9-2.8 6.4-4 10-1.5 4.4-2.4 10.1-2.7 17.5-.4 6.6-.1 14.4.7 19.5.6 4.7 2.3 12.1 3.7 16.5 1.4 4.4 3.9 11.1 5.7 15 1.8 3.9 5.8 11.1 9 16 4 6.1 9.9 13 18.5 21.5 7.9 7.8 16.7 15.4 23.6 20.1 6 4.2 23.2 14.7 38 23.4 14.9 8.6 32 19 38 23s14.4 9.9 18.5 13.2c4.1 3.3 11.8 10.5 17 15.9 5.2 5.5 12.6 13.7 16.4 18.4 3.8 4.7 10.1 13.5 14.1 19.5s10.3 17.1 13.9 24.5c3.6 7.4 8.6 19.6 11 27 2.5 7.4 5.5 18.2 6.6 24 1.9 9.4 2.1 12.9 1.7 33-.4 20.3-.7 23.5-3.1 32.5-1.4 5.5-3.8 13.1-5.3 17-1.4 3.9-3.7 9.2-5.1 12-1.3 2.7-4.8 8.6-7.7 13-2.9 4.4-8.1 10.8-11.4 14.2-3.4 3.5-9.8 9.1-14.3 12.4-4.6 3.4-9.5 6.7-11 7.5-1.6.8-2.8 1.2-2.8.9 0-.3.9-1.7 1.9-3.3 1.1-1.5 3.3-5.6 5-9.2 1.7-3.6 4-10.1 5.1-14.5 1.3-5.2 2.2-13.2 2.6-23 .4-9.8.2-18.1-.5-24-.7-5-2.3-13-3.5-18-1.3-5-4.2-13.7-6.5-19.5-2.3-5.8-6.5-14.5-9.3-19.5-2.8-5-7.4-12.1-10.3-16-2.8-3.9-8.7-10.9-13.1-15.7-4.3-4.7-12-12.1-16.9-16.5-5-4.3-12.4-10.3-16.5-13.4-4.1-3.1-13.1-9.4-20-14.1-6.9-4.6-19.7-13.3-28.5-19.3s-20.5-14.2-26-18.4c-5.5-4.2-13.6-10.7-18-14.6-4.3-3.8-11.4-11-15.8-16-4.3-5-10.9-13.5-14.6-19-3.8-5.5-9.1-14.3-11.9-19.5-2.8-5.2-7-14.2-9.2-20-2.3-5.8-5.7-15.7-7.5-22-1.8-6.3-4.1-17.5-5.2-24.8-1-7.6-2.2-13.1-2.8-12.9-.5.2-4 6.9-7.7 14.8s-8.5 20-10.7 26.9c-2.3 6.9-5 16.8-6 22-1.1 5.2-2.5 14.2-3.2 20-.7 6.2-.9 14.2-.5 19.5.4 5 1.3 12.4 2 16.5s5.2 18.8 10.1 32.5c4.8 13.7 10.6 31.8 13 40 2.4 8.2 5.4 20.4 6.8 27 1.4 6.6 3.3 17.6 4.3 24.5 1.2 8.6 1.7 18.5 1.7 32 0 13.1-.6 22.9-1.7 30-.9 5.8-3 15.7-4.7 22-1.7 6.3-5.1 16.5-7.5 22.5-2.5 6-6.8 15.3-9.6 20.5-2.8 5.2-7.7 13.3-10.8 18-3.1 4.7-8.5 12-11.9 16.3-3.3 4.197-9.1 10.997-12.7 14.897-3.7 4-11.9 12.2-18.3 18.2-10.6 9.9-12.6 11.3-23.8 16.7-6.8 3.3-15.6 6.9-26.8 10.2l-11-6.5c-6-3.6-15.3-8.7-20.5-11.3-5.2-2.6-14.7-6.5-21-8.6-6.3-2.1-16-4.8-21.5-5.9-7.8-1.7-15-2.3-55-3.4l-3.8-8c-2.1-4.5-4.3-11.2-4.9-15.097-.9-5.4-.9-8.8 0-15 .7-4.4 2.5-10.7 4-14 1.6-3.3 4.8-8.7 7.3-11.9 2.4-3.3 7.6-8.6 11.4-11.8 4.6-3.9 11.5-8.1 20-12.3 7.2-3.5 17.3-7.6 22.5-9.1 8.8-2.5 11.3-2.7 33-3.2 18.8-.3 25.1-.1 31.5 1.2 4.4.8 11.6 2.7 16 4.1 4.4 1.5 11.4 4.3 15.5 6.4 4.1 2 10.3 5.6 13.8 7.9 3.4 2.3 8.6 6.6 11.5 9.5 2.8 2.9 6.8 7.7 8.9 10.7 2 3 4.6 8 5.8 11 1.2 3 2.5 6 3 6.5.6.6 1.3-.1 2-2 .6-1.6 2-8.2 3.1-14.5 1.1-6.3 2.3-18.7 2.6-27.5.3-9.3.1-20.8-.6-27.5-.6-6.3-2-16.2-3.1-22-1.1-5.8-3.4-15.5-5.1-21.5-1.7-6-5.6-17.3-8.6-25-3.1-7.7-10.7-24.2-16.9-36.8-6.3-12.5-12.7-26.1-14.4-30.2-1.6-4.1-4.4-12.3-6-18.3-1.8-6.2-3.7-17-4.7-25.7-1.5-12.9-1.5-16.8-.5-28 .7-7.1 1.9-16.4 2.8-20.5.9-4.1 3.1-12.2 5-18 1.9-5.8 5.9-15.5 8.8-21.5 3-6 9.3-16.9 14.1-24 4.8-7.1 11.2-16.1 14.3-20 3.1-3.9 13.1-14.4 22.2-23.5s22.4-21.1 29.5-26.8c7.2-5.6 20.7-15.5 30-21.9 9.4-6.4 22-14.3 28-17.4 6.1-3.2 11.3-5.9 11.8-5.9Zm-48.6 199.2c.1.2 1.4 4.6 2.9 9.8 1.4 5.2 3.8 12.2 5.3 15.5 1.5 3.3 4.9 9.4 7.5 13.5 2.7 4.1 6.9 10 9.4 13s5.9 6.9 7.6 8.5c1.7 1.6 5.5 5.2 8.6 7.9 3 2.7 10.2 8 16 11.8 5.8 3.9 21.8 12.5 35.5 19.3 21.5 10.6 26.3 13.4 34 19.8 5 4.1 11.6 10.7 14.9 14.8 3.2 4.1 8 11.9 10.7 17.4 2.7 5.5 6.1 14.5 7.6 20 2.6 9.3 2.7 11.3 2.7 28.5-.1 12.4-.7 21.6-1.8 28-.9 5.2-2.8 13.5-4.2 18.5-1.4 5-3.5 11.6-4.7 14.9-1.2 3.2-2.5 6-2.9 6.2-.5.2-1-1.5-1.3-3.8-.3-2.4-1-9.5-1.5-15.8-.6-6.3-2-16-3.1-21.5s-3.6-14.7-5.4-20.5c-1.9-5.8-4.6-13.2-6.1-16.5-1.4-3.3-5-9.7-8-14.2-3-4.6-8.9-11.8-13.2-16-5.7-5.8-11.3-10-21.7-16.2-7.7-4.7-18.5-11.5-24-15.1-5.5-3.7-13.4-9.4-17.5-12.7-4.1-3.3-11.5-10.2-16.4-15.4-4.8-5.2-11.3-13.2-14.4-17.9-3.1-4.7-6.7-11-8-14-1.3-3-3.5-8.6-4.9-12.5-1.3-3.9-3-10.8-3.8-15.5-.9-4.8-1.5-14.6-1.5-22.8 0-7.8.3-14.9.7-15.7.4-.9.8-1.5 1-1.3Zm29.6 155.8c1.2 0 4.8.7 8 1.5 3.1.8 8.5 2.7 12 4.1 3.4 1.4 10 5.1 14.7 8.2 4.7 3.2 11.4 8.6 15 12.2 3.6 3.6 8.1 8.8 9.9 11.5 1.9 2.8 5 8.4 6.9 12.5 1.9 4.1 4 10.4 4.8 14 .7 3.6 1.8 12.8 2.4 20.5.7 7.7 2 18.3 3 23.5 1 5.2 2.8 12.2 4.1 15.5 1.4 3.3 4.6 9.6 7.4 14 2.7 4.4 7.6 10.797 10.9 14.097 4.4 4.5 8.4 7.3 14.6 10.3 6.2 3 11.5 4.7 19.5 6.2 6.1 1.1 11.2 2.2 11.5 2.5.3.3-1.1 2-3 3.6-1.9 1.7-6 4.6-9 6.6-3 1.9-8.4 4.7-12 6.1-6 2.3-7.8 2.5-37.5 2.6l-16.4-7c-14.6-6.2-17.2-7.7-22.9-13-3.6-3.3-8.4-8.7-10.8-12-2.3-3.3-5.6-9-7.3-12.797-1.7-3.7-4-10-5.2-14-1.9-6.5-2.2-11-2.9-46.2-.7-28.9-1.3-40.8-2.4-46-.9-3.9-2.7-10.1-4.1-14-1.3-3.9-4.9-10.7-8-15.3-3-4.5-5.5-8.4-5.5-8.7 0-.3 1-.5 2.3-.5ZM270 1035.79c.6 0 15.7 8.4 33.8 18.6 18 10.2 36.8 20.5 41.7 23 5 2.4 11.9 5.1 15.5 6 4.9 1.3 9.3 1.5 18 1.1 8.1-.4 13.3-1.1 17.5-2.6 3.3-1.2 13.2-6.2 22-11.1 8.8-4.9 19.4-10.4 23.5-12.3 4.1-1.9 11.8-4.8 17-6.5 5.2-1.6 14-3.8 19.5-4.8 7.1-1.3 14.7-1.8 26-1.8 8.8.1 19.8.7 24.5 1.4 4.7.6 12.2 2.3 16.8 3.6 4.5 1.3 12.4 4 17.5 5.9 5 1.9 16.4 7.8 25.2 13 10.5 6.3 18.8 10.4 24 12.1 4.4 1.4 11.2 2.8 15 3.1 4.5.4 9.9 0 15-1 6.7-1.3 12.5-3.9 35.5-15.5 15.1-7.7 31.6-15.3 36.5-17 5-1.7 12.5-3.7 16.8-4.6 4.2-.9 12.3-2.1 18-2.7 7.7-.9 14.1-.9 26.2 0 10.2.7 19.6 2.1 25.8 3.6 5.3 1.4 13.6 4 18.5 5.9 4.8 1.8 10.7 4.3 13.2 5.6 2.5 1.2 11 6.2 19 11s17.4 9.8 21 11.1c5.2 1.8 8.8 2.3 17.5 2.3 8.9.1 12.2-.3 17.5-2.1 3.6-1.2 10.6-4.8 15.5-7.9 5-3.1 11.9-7.4 15.5-9.5 3.6-2.1 10.1-5.2 14.5-7 4.4-1.7 12.3-4.3 17.5-5.7 8.5-2.2 11.5-2.5 28.5-2.5 14.7-.1 20.8.3 27 1.7 4.4 1 11.2 2.9 15 4.3 3.8 1.4 10.2 4 14 5.9 3.8 1.8 11.5 6.3 17 10s12.5 7.9 15.5 9.2c3 1.4 7.8 3.1 10.5 3.9 2.8.7 8.8 1.3 13.5 1.3 4.7 0 11.3-.7 14.8-1.5 3.4-.8 8.6-2.7 11.5-4.1 2.8-1.5 19.6-10.6 37.2-20.4 17.6-9.7 34.4-18.9 37.3-20.4 2.8-1.4 5.4-2.5 5.6-2.4.2.2-.7 5.3-2 11.3-1.4 6-11.7 50-23 97.7-11.2 47.8-20.2 87.3-19.9 87.8.3.5 2.9 1.7 5.8 2.6 2.8.9 8.3 3.3 12.1 5.3 3.9 2 10.3 6.7 14.5 10.6 4.1 3.8 8.9 9.2 10.6 12 1.8 2.7 4.4 8.2 6 12 1.5 3.8 3.1 9.5 3.7 12.5.6 3.7.6 8.7-.2 15.5-.6 5.7-2.4 13.8-4.1 19-1.7 5-4.7 11.7-6.6 15-2 3.3-8.8 13.7-15.1 23-6.3 9.3-16.5 23.7-22.7 32-6.3 8.2-16.1 20.8-22 28-5.8 7.2-14.6 17.5-19.4 23-4.8 5.5-18 19.2-29.2 30.5s-25.3 25-31.4 30.4c-6 5.5-17.3 15-25 21.2-7.7 6.1-21 16.1-29.5 22.2-8.5 6.1-21.8 15-29.5 19.8-7.7 4.8-19.8 11.9-27 15.8-7.1 3.9-19.5 10-27.5 13.7-8 3.7-20.8 9.1-28.5 12.2-7.7 3-18.9 7.1-25 9-6 1.9-17.1 5.1-24.5 7-7.4 2-19.3 4.7-26.5 6.1-7.1 1.4-17.5 3.2-23 4-5.5.9-14 2-19 2.6-4.9.5-24.1 1-42.5 1-23.9 0-37.4-.4-47-1.6-7.4-.8-20-2.6-28-4s-21-4.1-29-6c-8-1.9-22.1-6-31.5-9.1-9.3-3-22.8-7.8-30-10.6-7.1-2.8-23.6-10.4-36.5-16.9-12.9-6.4-28.4-14.7-34.5-18.3-6-3.7-16.8-10.5-24-15.3-7.1-4.7-19.1-13.2-26.5-18.7-7.4-5.6-20.9-16.4-30-24.1-9-7.6-25.3-22.7-36.1-33.4s-24.1-24.5-29.5-30.5c-5.5-6.1-14.2-16.2-19.5-22.5-5.2-6.3-14.3-17.6-20-25-5.8-7.4-14.8-19.6-20.1-27-5.2-7.4-14.4-20.9-20.4-30-6-9.1-12.8-20.1-15.1-24.5-2.2-4.4-5.1-11.2-6.2-15-1.5-5-2.1-9.6-2.1-16 0-5 .5-10.8 1.1-13 .6-2.2 2.7-7.4 4.7-11.5 2.7-5.5 5.8-9.6 11.7-15.7 7-7.1 9.4-8.8 19.5-13.7 6.3-3.1 12.1-5.6 12.8-5.6.6 0 1.2-.7 1.2-1.5s-2.4-12.4-5.4-25.8c-3-13.3-11.1-48.3-18-77.7-6.8-29.4-14.3-61.5-16.5-71.3-2.3-9.7-4.1-17.9-4.1-18.2 0-.3.5-.5 1-.5Zm883-736.897c-2.5.5-6.7 1.6-9.5 2.5-2.7.9-8.4 3.4-12.5 5.5s-10.9 6.7-15 10.2c-4.1 3.5-10 9.2-13.1 12.8-3.1 3.5-7.2 8.9-9.2 11.9-1.9 3-5.3 9.1-7.5 13.5s-5.2 11.2-6.7 15c-1.4 3.9-6.2 21.2-10.5 38.5-4.4 17.3-9.1 34.9-10.5 39-1.4 4.1-4.6 11.3-7.2 16-3.6 6.7-4.2 8.7-3.2 9.3.8.5 5.7.6 10.9.4 6.5-.4 11.5-1.3 16-2.9 3.6-1.3 9.9-4.3 14-6.6 4.1-2.4 10.7-6.9 14.5-10 3.8-3.2 9.9-9.4 13.5-13.9 3.6-4.4 8.6-11.8 11.2-16.4 2.6-4.6 6.1-12 7.9-16.4 1.7-4.4 5.6-17.9 8.5-30 3-12.1 6.8-27.4 8.6-34 1.7-6.6 4.7-15.8 6.5-20.5 1.9-4.7 5.2-11.5 7.4-15.2 2.1-3.8 3.9-7.1 3.9-7.5 0-.5-2.1-1.1-4.7-1.6-2.7-.4-5.7-.7-6.8-.6-1.1.1-4 .5-6.5 1Zm-833.5 9.3c-2.2.7-6 2.3-8.5 3.5-2.5 1.3-5.8 3.5-7.3 5-1.6 1.4-3.8 4.4-4.9 6.6-1.6 3.1-1.9 5-1.4 8.5.4 2.5 2.7 8.3 5.3 13 2.5 4.7 11.2 19.3 19.3 32.5 8.1 13.2 16.3 26.6 18.3 29.8 2.1 3.1 3.9 5.7 4.2 5.7.3 0 .4-9.8.3-21.8l-.3-21.8c5.8-6.1 8.3-9.5 9.2-11.4 1.4-2.6 1.8-5.9 1.8-13 0-8.7-.3-10.1-3.2-16-1.7-3.6-5.5-9-8.5-12.1-2.9-3.2-7.3-6.6-9.8-7.8-2.5-1.1-5.8-2-7.5-2-1.6 0-4.8.6-7 1.3Zm70 108.8c-3.8.5-14 1.8-22.5 2.8-8.5 1.1-15.6 2.2-15.7 2.5-.2.3 1.4 3.5 3.4 7.3 2 3.7 9.6 16.4 16.8 28.2 7.3 11.8 15.9 25.8 19.2 31 3.3 5.2 8.2 12.8 10.9 16.8 2.7 4 5.4 7.2 5.9 7.2.6 0 3.9-1.7 7.5-3.7s11.9-7 18.5-11.1 12.1-7.5 12.3-7.5c.1-.1-1-2.4-2.6-5.2-1.6-2.7-8-13.3-14.2-23.5-6.2-10.2-15.3-24.7-20.2-32.2-6.1-9.6-9.3-13.8-10.5-13.7-1 .1-4.9.6-8.8 1.1Zm191 750.697c-2.7.4-8.1 1.8-12 3.1-3.8 1.3-11.9 4.6-18 7.3-6 2.7-20 9.4-31 15-11 5.5-31.2 16-45 23.5-13.7 7.4-27.8 15.1-31.3 17.1-3.4 2-6.2 3.8-6.2 4.1 0 .3 3 1.7 6.7 3.2 3.8 1.5 10.4 4.9 14.8 7.4 5 2.9 11.1 7.8 16.1 12.8 6.3 6.4 9 9.9 12.3 16.6 2.3 4.7 4.8 11.9 5.7 16 1.1 5.1 1.4 10.1 1 15.5-.3 4.4-1.4 10.7-2.5 14-1.1 3.3-3.8 8.7-5.9 12-2.1 3.3-5.6 7.8-7.8 10-2.1 2.2-6.8 6-10.4 8.5-3.6 2.4-9.3 5.6-12.7 7.2-3.5 1.5-9.8 3.7-14 4.8-4.3 1.1-12.7 2.4-18.8 3-6 .5-21.3 1-34 1-12.6 0-28.8-.5-36-1-7.1-.5-16.8-1.7-21.5-2.6-4.7-.8-8.6-1.3-8.7-1-.2.3 1.8 3.6 4.4 7.3 2.5 3.8 9.2 12.6 14.7 19.8 5.5 7.2 13.4 17 17.5 22s12.3 14.4 18.2 21c5.8 6.6 11.4 12.6 12.3 13.2 1.3 1.1 2.2 1 4.9-.3 1.7-.9 13.8-8.6 26.7-17.2 12.9-8.5 34.1-22.7 47-31.5 12.9-8.8 32.3-22.5 43-30.5 10.7-8 23.8-17.9 29-22 5.2-4.2 13.7-11.4 18.9-16.1 5.2-4.7 13.7-13.3 18.9-19.1 5.3-5.8 13.4-15.7 18.1-22 4.7-6.3 12.1-17.1 16.4-24 4.3-6.9 10.2-17.2 13.1-23 3-5.8 7.2-14.5 9.4-19.5s5.6-13.5 7.7-19l3.7-10c-7.5-6.7-11.9-10.6-14.7-13-2.7-2.3-7.7-5.6-11-7.3-3.3-1.6-8.2-3.7-11-4.5-2.7-.8-9-1.7-14-2-4.9-.3-11.2-.2-14 .2Zm265.5 2.6c-3 .9-8.2 2.8-11.5 4.4-3.3 1.5-8.7 4.8-12 7.3-3.3 2.5-7.7 6.4-9.7 8.7-2.1 2.2-3.8 5-3.8 6.1 0 1.1 1.6 6.4 3.6 11.7 2 5.4 6.7 16.3 10.6 24.3 3.8 8 10 19.7 13.8 26 3.7 6.3 10.3 16.5 14.6 22.7 4.4 6.1 11.6 15.6 16 21 4.5 5.4 12.8 14.3 18.5 19.8 5.7 5.5 15.6 14.3 21.9 19.4 6.3 5.2 19.2 15.2 28.5 22.1 9.4 7 24.4 17.8 33.5 24.2 9.1 6.3 31.4 21.4 49.5 33.4 18.2 12.1 41.2 27.2 51.3 33.7 15.6 10 18.4 11.5 19.9 10.4.9-.6 8.6-8.6 17.1-17.7 8.5-9.1 21.6-23.9 29.1-32.8 7.5-9 18.9-23.4 25.3-32 6.5-8.7 11.6-15.9 11.3-16.2-.2-.3-5 .5-10.7 1.7-5.7 1.2-15.7 2.8-22.3 3.5-6.6.7-24.8 1.2-40.5 1.2-22.5 0-30.9-.3-40-1.8-6.3-.9-14.2-2.6-17.5-3.7-3.3-1.1-9.2-3.6-13-5.4-3.8-1.9-10-5.9-13.7-9-4.4-3.6-8.6-8.2-11.8-13.3-2.8-4.2-6.1-10.6-7.3-14.2-1.7-5.1-2.2-8.7-2.1-17 0-9 .4-11.7 3-19 1.6-4.7 4.8-11.2 6.9-14.5 2.2-3.3 6.3-8.2 9-10.9 2.8-2.7 8.1-7.2 11.8-10 5.5-4.1 6.6-5.3 5.5-6.3-.7-.6-17.5-10-37.3-20.8-19.8-10.8-50-26.6-67-35-18.2-9.1-35.5-17-42-19.1-9.5-3.2-12.5-3.8-22-4.1-7.7-.2-12.6.2-16.5 1.2Zm-157.5 21.5c-3.8 1-11 3.3-16 5-5 1.8-9.3 3.5-9.7 3.8-.5.4-3.4 7.2-6.6 15.2-3.3 8-8.2 19.5-11.1 25.5-2.9 6-7.5 15-10.3 20-2.8 5-8.5 14.2-12.6 20.5-4.1 6.3-11.6 16.9-16.6 23.5-5 6.5-14.5 17.5-21.1 24.3-6.6 6.9-16.3 16.1-21.5 20.6-5.2 4.6-14.7 12.3-21 17.2-6.3 4.9-19.6 14.8-29.5 22-9.9 7.2-29.2 20.8-43 30.1-13.7 9.4-34.2 23.1-45.6 30.5-11.3 7.3-20.4 13.8-20.3 14.3.2.5 8.3 8.4 18.1 17.4 9.8 9 21.4 19.5 25.8 23.2 4.4 3.7 16.8 13.3 27.5 21.3s20.1 14.6 20.8 14.6c.6 0 10.3-7.5 21.5-16.7 11.1-9.1 28.3-23.6 38.2-32.1 9.9-8.5 25-21.9 33.5-29.7 8.5-7.9 21.1-20.1 28-27.2 6.9-7 14.3-14.8 16.5-17.3 2.2-2.5 6.7-7.7 10.1-11.5 3.3-3.9 7.7-9 9.7-11.5l3.7-4.5c-6.9-17.8-9.6-25.7-10.4-29-.9-3.3-2-10-2.6-15-.5-5-.7-12.8-.4-17.5.3-4.7 1.4-13.5 2.4-19.5s2.8-13.5 3.9-16.5 3.4-7.5 5-10 4.9-6.5 7.3-8.9c2.6-2.7 7.9-6.2 13.6-9 9.1-4.5 9.2-4.7 9.7-8.6.2-2.2.8-11 1.4-19.5.6-9.1 1.9-18.8 3.1-23.5 1.1-4.4 3.9-11.3 6-15.3 2.2-3.9 4-7.4 4-7.7 0-.3-1-.5-2.2-.4-1.3 0-5.4.8-9.3 1.9Zm48 0c-2.7.4-7 1.6-9.5 2.6s-6.2 2.9-8.3 4.3c-2.1 1.4-4.9 4.2-6.1 6.1-1.3 1.9-3.3 6.7-4.6 10.5-1.3 3.9-2.6 11.4-3.1 17-.4 5.5-.8 14.8-.9 20.7v10.8c29.1 40.7 40.9 57 45 62.5 4 5.5 14.1 18.8 22.3 29.5 8.3 10.7 21.4 27.2 29.3 36.5 7.8 9.3 18.4 21.5 23.5 26.9 5.2 5.5 9.9 10.6 10.5 11.5.7.9 9.9 9.8 20.5 19.7 10.7 10 27.1 24.8 36.4 32.9 9.4 8.1 25.1 21.4 35 29.5 9.9 8 23.4 18.9 30 24.2 6.6 5.2 14.4 11.1 17.3 13.1 5.2 3.7 5.2 3.7 8.5 2 1.7-.9 8.4-5.1 14.7-9.3 6.3-4.2 17.1-11.9 24-17 6.9-5.1 15.9-12 20-15.4 4.1-3.3 10.9-8.9 15-12.5 4.1-3.5 10.1-8.8 13.3-11.7 3.1-3 5.7-5.9 5.7-6.4s-9.6-7.2-21.2-14.7c-11.7-7.5-35.9-23.4-53.8-35.4-17.9-11.9-42.2-28.6-54-37-11.9-8.5-27.6-20.1-35-25.9-7.4-5.7-18.7-15-25-20.6-6.3-5.5-15.8-14.6-21-20.1-5.2-5.4-13.5-15.1-18.3-21.4-4.9-6.3-12.9-17.7-17.8-25.4-5-7.7-13.2-22.3-18.2-32.5-5.1-10.2-11.7-24.6-14.6-32l-5.2-13.5c-17.4-5.7-24.2-7.8-26.4-8.4-2.2-.5-8.3-1.2-13.5-1.5-5.2-.2-11.7-.1-14.5.4Zm-402.5 54.1c-4.7.4-11.6 1.7-15.5 2.9-3.8 1.2-9.7 3.5-13 5-3.3 1.6-8.5 5-11.5 7.7-3 2.8-6.9 7.2-8.7 9.9-1.8 2.7-4.2 7.6-5.3 10.9-1.2 3.3-2.2 8.5-2.2 11.5-.1 3.2.8 8.3 2 12 1.2 3.6 3.9 9.2 6 12.5 2.1 3.3 6.5 8.4 9.8 11.4 3.2 2.9 8.8 7 12.4 8.9 3.6 2 10.1 4.9 14.5 6.4s13.4 3.4 20 4.3c9.1 1.3 19.7 1.7 44 1.7 24.8 0 34-.4 40.8-1.6 4.8-.9 11.5-2.6 15-3.9 3.4-1.2 8.8-3.8 12-5.7 3.2-1.9 8.3-6 11.3-9 3.1-3 6.8-8 8.2-11 2.4-4.9 2.7-6.7 2.7-15.5 0-8.3-.4-10.9-2.3-15-1.3-2.8-4-7.2-6-9.9s-6.4-7-9.7-9.5c-3.3-2.5-9.5-6.3-13.7-8.3-4.3-2.1-12-4.9-17-6.3-5.1-1.3-14-3.1-19.8-3.9-5.8-.9-19.5-2.4-30.5-3.5s-23.4-2.2-27.5-2.3c-4.1-.2-11.3-.1-16 .3Zm794.5 3.6c-3.3.2-15.9 1.5-28 2.9-12.1 1.3-26.5 3.4-32 4.5s-13.2 3.3-17 4.8c-3.8 1.5-9.9 4.3-13.5 6.3-3.6 1.9-9.2 6-12.5 9-3.3 3.1-7.2 7.7-8.7 10.4-1.5 2.7-3.4 7.8-4.4 11.4-1.2 4.6-1.4 8.4-1 13 .4 3.8 1.8 8.8 3.3 12 1.5 3 5.2 8 8.2 11.2 4.2 4.2 8 6.8 15.1 10.1 5.2 2.5 12.2 5.3 15.5 6.1 3.3.9 13 2.1 21.5 2.7 8.8.7 25.6.9 39 .6 12.9-.4 28.2-1.3 34-2.1 5.8-.8 14.1-2.6 18.5-4.1 4.4-1.5 10.7-4.3 14-6.3 3.3-2 8.6-6.2 11.9-9.2 3.2-3 8-9.1 10.7-13.5 2.7-4.4 5.6-10.9 6.6-14.5 1.4-5.6 1.5-7.3.4-12.5-.7-3.3-2.3-8.3-3.6-11-1.2-2.8-4.1-7.4-6.4-10.3-2.2-2.8-6.7-7.1-9.8-9.4-3.2-2.3-8.3-5.2-11.3-6.4-3-1.2-8.2-2.9-11.5-3.7-3.3-.8-12.1-1.7-19.5-2-7.4-.2-16.2-.2-19.5 0Zm-444.6 31.3c-4.1 2.1-9 5.5-11 7.6-1.9 2.2-4.5 6.6-5.8 9.9-1.2 3.3-2.9 9.2-3.8 13-.9 4.2-1.6 12.7-1.7 21.5-.1 11 .3 16.4 1.8 22.5 1 4.4 3.5 12 5.6 17 2.1 5 8.4 19.1 14 31.5 5.6 12.4 12.6 27.5 15.5 33.5 3.6 7.2 8.9 15.6 15.6 24.5 5.6 7.4 18.1 23.4 27.8 35.4 9.7 12.1 24.5 30.1 33 40 8.5 10 24.8 27.3 36.1 38.6s24.2 23.7 28.5 27.6l8 7.1c28.7-8.8 41.7-13 47.5-15.1 5.8-2.1 18.4-7.4 28-11.7 9.6-4.4 22-10.3 27.5-13.2 5.5-2.9 10-5.7 10-6.3 0-.6-10.8-9.8-24-20.4-13.2-10.7-29.2-23.6-35.5-28.9-6.3-5.2-18.9-16.1-28-24-9.1-8-23.2-20.8-31.3-28.5-8.2-7.8-21.5-21.3-29.7-30.1-8.1-8.8-18.3-20.3-22.7-25.5-4.3-5.2-12.6-15.4-18.4-22.5-5.7-7.2-17.2-22-25.5-33s-23.7-32.2-34.4-47c-10.6-14.8-19.3-27.1-19.4-27.1-.2-.1-3.6 1.5-7.7 3.6Zm-29.5 140.2c-5.4 6.2-15.3 16.9-21.9 23.7-6.6 6.8-18.5 18.5-26.5 26s-16.4 15.2-18.5 17.1c-2.2 2-10.5 9.2-18.5 16.1-8 6.9-22.4 19.1-32 27.1-9.6 8-19.1 15.9-21 17.6-1.9 1.6-3.3 3.2-3 3.5.3.2 4.8 3 10 6.1 5.2 3.2 19.9 10.8 32.5 17.1 12.7 6.2 28.2 13.4 34.5 15.8 6.3 2.5 16.1 6.1 21.8 8.1l10.2 3.6c32.5-32.2 42-42.3 42-43.3 0-.9-1.9-5.4-4.1-10-2.3-4.5-5.9-12-7.9-16.7-2.1-4.7-4.5-12-5.4-16.3-.9-4.2-1.6-12-1.6-17.2 0-5.2.7-12.8 1.6-16.8.9-3.9 2.7-9.5 4-12.2 1.3-2.8 4.8-7.4 8.1-10.5 3.867-3.66 8.567-6.73 14.1-9.2 4.5-2.1 8.7-3.8 9.2-3.8.6 0 1-.3 1-.8-.1-.4-3.8-8.5-8.3-18.1-4.5-9.6-8.7-17.6-9.3-17.8-.6-.2-5.5 4.7-11 10.9Zm28.4 44.6c-3.7 1.5-8.4 4-10.5 5.7-2 1.7-4.7 5.2-6 8-1.2 2.7-2.7 8.4-3.4 12.5-.8 5.7-.8 9.4.1 15.5.7 4.4 2.6 11.8 4.3 16.5 1.7 4.7 7.4 17 12.7 27.5 5.3 10.5 12.1 23.3 15 28.5 2.9 5.2 8.7 15.3 12.9 22.4 4.2 7 8.8 14.2 10.2 16l2.7 3.1c46-.1 62.8-.6 68.2-1.3 5.2-.7 14.9-2 21.5-2.8 6.6-.9 12.5-2 13-2.5.6-.5-7.9-9.6-21.6-23.1-12.4-12.3-25.9-26.1-30.1-30.8-4.1-4.7-14.4-16.8-22.9-27-8.5-10.2-22.9-27.9-31.9-39.4-9.1-11.5-18.3-23.2-20.6-26-2.2-2.8-4.7-5.2-5.5-5.3-.8-.2-4.4 1-8.1 2.5Zm-25.3 127.2c-8.3 8.2-14.8 15.2-14.5 15.4.3.3 6.6 1.9 14 3.5 7.4 1.7 17.8 3.7 23 4.6 5.2.8 10.7 1.7 12.3 2 2.4.4 2.6.2 2.2-1.8-.3-1.2-5-10.4-10.5-20.5-5.5-10-10.3-18.2-10.8-18.2-.4 0-7.5 6.7-15.7 15Z" fill="#000"/></svg>