<svg width="53" height="63" fill="none" xmlns="http://www.w3.org/2000/svg"><mask id="a" fill="#fff"><path fill-rule="evenodd" clip-rule="evenodd" d="M29.426.839c.027 0 .047.027.047.067 0 .04-.122.21-.277.385a3.416 3.416 0 0 0-.425.66 4.174 4.174 0 0 0-.243.71 4.694 4.694 0 0 0-.08.944c0 .317.033.755.08.978.04.223.142.6.216.843.074.243.23.621.344.844.108.222.31.573.452.776.135.202.432.573.648.823.216.25.614.627.87.843.264.216.729.567 1.046.77.317.208 1.194.735 1.957 1.173.762.439 1.686.999 2.057 1.248.371.257.904.655 1.181.891s.803.783 1.174 1.208c.364.418.85 1.059 1.086 1.41.23.35.594.978.796 1.383.21.405.48 1.06.614 1.45.129.392.284.938.344 1.215.061.276.129.917.149 1.417.02.533.007 1.153-.04 1.484-.041.317-.136.816-.21 1.113-.08.297-.276.83-.445 1.18-.169.352-.439.824-.6 1.047a6.956 6.956 0 0 1-.716.816 8.488 8.488 0 0 1-.823.675c-.209.141-.398.25-.418.23-.014-.021.088-.278.236-.574a4.9 4.9 0 0 0 .371-1.066c.06-.304.101-.884.101-1.397 0-.6-.04-1.086-.135-1.538a9.285 9.285 0 0 0-.323-1.195 11.24 11.24 0 0 0-.419-.978 14.179 14.179 0 0 0-.593-1.012c-.21-.317-.689-.89-1.06-1.275a15.85 15.85 0 0 0-1.214-1.133c-.297-.237-1.356-.985-2.361-1.66-.999-.675-2.112-1.457-2.463-1.74-.35-.284-.83-.696-1.053-.912a11.62 11.62 0 0 1-.748-.803 11.411 11.411 0 0 1-.675-.91c-.19-.277-.493-.81-.682-1.181a12.832 12.832 0 0 1-.573-1.35 13.116 13.116 0 0 1-.344-1.18c-.068-.277-.155-.783-.29-1.72l-.378.775a17.074 17.074 0 0 0-.587 1.384c-.115.33-.29.924-.378 1.315a8.437 8.437 0 0 0-.209 1.586c-.027.647-.007 1.039.074 1.504.06.338.27 1.066.473 1.62.195.546.472 1.329.6 1.733.135.405.317 1.046.412 1.417.094.371.236 1.04.317 1.484.08.493.155 1.249.175 1.923.027.688.007 1.383-.047 1.822-.04.391-.155.998-.243 1.35-.088.35-.243.85-.337 1.113-.102.263-.324.762-.493 1.113-.175.35-.492.897-.702 1.214-.209.317-.634.877-.944 1.248-.31.371-.898.992-1.31 1.383-.62.594-.842.756-1.375 1.02-.351.168-.837.377-1.545.6l-.655-.398a26.423 26.423 0 0 0-1.066-.6 10.716 10.716 0 0 0-1.012-.412 11.84 11.84 0 0 0-1.282-.358c-.513-.108-.958-.148-3.036-.175l-.223-.432a3.485 3.485 0 0 1-.29-.83 2.258 2.258 0 0 1 .007-.877c.04-.263.169-.648.277-.857.108-.216.384-.594.62-.837.237-.256.655-.593.959-.776a7.222 7.222 0 0 1 1.079-.526c.297-.108.77-.243 1.046-.303.276-.054.796-.122 1.147-.149a7.638 7.638 0 0 1 1.35.04c.39.041.964.156 1.281.244a8 8 0 0 1 .978.357c.223.101.587.31.81.459.223.148.567.438.762.634.236.243.46.567.952 1.579l.067-.27c.034-.148.115-.513.169-.81.054-.296.121-.89.148-1.315a10.84 10.84 0 0 0-.034-1.552 20.678 20.678 0 0 0-.216-1.45 17.058 17.058 0 0 0-.485-1.721c-.25-.762-.56-1.47-1.127-2.598-.432-.85-.877-1.841-.992-2.192-.114-.351-.263-.884-.324-1.18-.06-.298-.128-.891-.148-1.316a7.478 7.478 0 0 1 .074-1.552c.068-.425.21-1.066.324-1.417.108-.35.35-.945.526-1.316.176-.37.527-.978.776-1.35.25-.37.648-.903.877-1.18.236-.276.796-.87 1.255-1.322A23.527 23.527 0 0 1 25.593 3.3c.372-.297 1.053-.79 1.518-1.106.466-.31.891-.607.945-.655.054-.047.378-.23.708-.391a8.88 8.88 0 0 1 .662-.31Zm-2.72 10.93c.055 0 .109.141.142.337.034.189.142.56.25.83.101.263.358.742.567 1.059.202.317.573.77.81 1.012.235.243.613.58.83.749.222.175.647.459.944.64.297.176.965.52 1.484.75.52.236 1.16.566 1.417.742.263.168.668.5.897.722.236.23.56.607.722.85.162.243.385.668.493.944.114.277.256.742.31 1.033.06.296.108.857.108 1.315 0 .432-.047 1.06-.101 1.397-.054.337-.156.816-.23 1.08-.074.262-.202.654-.283.876-.135.365-.155.385-.203.237a3.111 3.111 0 0 1-.053-.54c0-.203-.068-.75-.149-1.215a11.755 11.755 0 0 0-.31-1.383 13.383 13.383 0 0 0-.338-.944 7.814 7.814 0 0 0-.492-.911 6.159 6.159 0 0 0-.756-.91c-.25-.237-.843-.655-1.437-1.013a28.558 28.558 0 0 1-1.653-1.086c-.35-.263-.884-.735-1.18-1.046-.297-.31-.641-.702-.756-.87a7.68 7.68 0 0 1-.897-1.89c-.122-.397-.156-.742-.183-1.632-.027-.884-.02-1.133.048-1.133Zm1.816 8.54c.135.028.425.109.647.19.223.08.62.263.877.411.284.156.689.48 1.02.803.296.304.64.715.748.918.115.202.277.567.358.81.094.29.175.816.242 1.551.054.614.142 1.296.196 1.518.06.223.21.614.33.877.122.263.372.668.554.904.196.257.5.54.735.695.223.149.6.324.844.398.243.075.614.155.836.183.216.026.405.067.419.1.013.028-.135.17-.324.311a4.65 4.65 0 0 1-.695.432 3.678 3.678 0 0 1-.709.25c-.222.053-.654.074-1.08.053-.694-.027-.721-.033-1.53-.411-.46-.21-.85-.385-.878-.385-.033.007-.263-.216-.526-.485-.256-.27-.567-.675-.688-.898a6.934 6.934 0 0 1-.344-.81 5.13 5.13 0 0 1-.182-.775c-.034-.203-.061-1.235-.068-2.294-.013-1.525-.034-2.024-.128-2.395a4.97 4.97 0 0 0-.304-.877 4.441 4.441 0 0 0-.431-.722c-.142-.182-.23-.338-.203-.358.02-.02.149-.013.284.007ZM.96 30.37l1.963 1.114c.89.506 1.815 1.012 2.058 1.126.243.115.668.243.944.29.399.061.621.068 1.046 0a3.37 3.37 0 0 0 1.08-.35c.297-.142.83-.432 1.18-.641.351-.203.884-.466 1.181-.58.297-.115.756-.264 1.012-.331.263-.068.709-.155.999-.196.283-.04.782-.074 1.113-.074.324 0 .89.047 1.261.101.372.054.932.182 1.249.277.317.101.79.276 1.046.391.263.122.762.405 1.113.634.35.23.823.48 1.045.56.27.102.621.162 1.046.183.526.027.729.006 1.113-.108.264-.081 1.006-.432 1.653-.79.648-.35 1.43-.729 1.741-.843.304-.108.864-.27 1.248-.351.526-.108.925-.142 1.7-.142.77 0 1.174.034 1.687.142.371.08.904.223 1.18.324.277.094.71.283.966.405.25.128.735.411 1.08.64.336.223.788.466.99.547.27.101.54.142.98.148.39.007.735-.033.977-.108.203-.06.648-.29.979-.512.337-.223.823-.506 1.08-.634a7.932 7.932 0 0 1 1.011-.412c.297-.094.877-.21 1.282-.256a5.656 5.656 0 0 1 1.47-.007c.399.047.973.162 1.283.256.303.101.769.284 1.025.419.264.128.729.411 1.046.62.317.216.756.46.978.547.324.121.533.155 1.08.155.52 0 .762-.034 1.046-.142.202-.074 1.356-.688 2.563-1.363 1.208-.674 2.207-1.207 2.227-1.187.02.02-.54 2.442-1.242 5.384-.694 2.942-1.288 5.364-1.315 5.39-.02.028-.176.014-.344-.026-.169-.04-.715-.075-1.215-.075-.56 0-1.49.068-2.408.183-.83.094-1.727.222-2.483.39l-.843-.465c-.466-.263-1.539-.85-2.396-1.315-.85-.466-2.024-1.087-2.597-1.39a54.699 54.699 0 0 0-1.923-.945 15.623 15.623 0 0 0-1.45-.587 5.353 5.353 0 0 0-1.181-.215 3.695 3.695 0 0 0-1.113.074c-.277.06-.716.209-.979.337a6.016 6.016 0 0 0-.904.553 5.341 5.341 0 0 0-.85.837l-.843-.277c-.614-.202-.999-.283-1.417-.31-.317-.02-.742-.007-.945.034-.276.054-.479.047-.81-.027a5.62 5.62 0 0 0-.89-.095c-.256 0-.62.034-.81.074-.195.04-.688.176-1.841.547l-.169-.223c-.094-.121-.398-.405-.675-.62-.276-.216-.688-.486-.91-.587a4.962 4.962 0 0 0-.878-.304c-.344-.088-.668-.108-1.214-.088-.607.027-.864.075-1.417.257-.405.135-1.592.688-2.968 1.383a169.63 169.63 0 0 0-5.398 2.887l-1.484-.155c-.817-.08-1.775-.148-2.125-.148-.351 0-.85.04-1.114.08-.256.041-.472.068-.479.055-.006-.014-.56-2.375-1.228-5.25-.674-2.873-1.22-5.269-1.22-5.316.006-.067.114-.034.357.101Z"/></mask><path clip-rule="evenodd" d="M29.426.839c.027 0 .047.027.047.067 0 .04-.122.21-.277.385a3.416 3.416 0 0 0-.425.66 4.174 4.174 0 0 0-.243.71 4.694 4.694 0 0 0-.08.944c0 .317.033.755.08.978.04.223.142.6.216.843.074.243.23.621.344.844.108.222.31.573.452.776.135.202.432.573.648.823.216.25.614.627.87.843.264.216.729.567 1.046.77.317.208 1.194.735 1.957 1.173.762.439 1.686.999 2.057 1.248.371.257.904.655 1.181.891s.803.783 1.174 1.208c.364.418.85 1.059 1.086 1.41.23.35.594.978.796 1.383.21.405.48 1.06.614 1.45.129.392.284.938.344 1.215.061.276.129.917.149 1.417.02.533.007 1.153-.04 1.484-.041.317-.136.816-.21 1.113-.08.297-.276.83-.445 1.18-.169.352-.439.824-.6 1.047a6.956 6.956 0 0 1-.716.816 8.488 8.488 0 0 1-.823.675c-.209.141-.398.25-.418.23-.014-.021.088-.278.236-.574a4.9 4.9 0 0 0 .371-1.066c.06-.304.101-.884.101-1.397 0-.6-.04-1.086-.135-1.538a9.285 9.285 0 0 0-.323-1.195 11.24 11.24 0 0 0-.419-.978 14.179 14.179 0 0 0-.593-1.012c-.21-.317-.689-.89-1.06-1.275a15.85 15.85 0 0 0-1.214-1.133c-.297-.237-1.356-.985-2.361-1.66-.999-.675-2.112-1.457-2.463-1.74-.35-.284-.83-.696-1.053-.912a11.62 11.62 0 0 1-.748-.803 11.411 11.411 0 0 1-.675-.91c-.19-.277-.493-.81-.682-1.181a12.832 12.832 0 0 1-.573-1.35 13.116 13.116 0 0 1-.344-1.18c-.068-.277-.155-.783-.29-1.72l-.378.775a17.074 17.074 0 0 0-.587 1.384c-.115.33-.29.924-.378 1.315a8.437 8.437 0 0 0-.209 1.586c-.027.647-.007 1.039.074 1.504.06.338.27 1.066.473 1.62.195.546.472 1.329.6 1.733.135.405.317 1.046.412 1.417.094.371.236 1.04.317 1.484.08.493.155 1.249.175 1.923.027.688.007 1.383-.047 1.822-.04.391-.155.998-.243 1.35-.088.35-.243.85-.337 1.113-.102.263-.324.762-.493 1.113-.175.35-.492.897-.702 1.214-.209.317-.634.877-.944 1.248-.31.371-.898.992-1.31 1.383-.62.594-.842.756-1.375 1.02-.351.168-.837.377-1.545.6l-.655-.398a26.423 26.423 0 0 0-1.066-.6 10.716 10.716 0 0 0-1.012-.412 11.84 11.84 0 0 0-1.282-.358c-.513-.108-.958-.148-3.036-.175l-.223-.432a3.485 3.485 0 0 1-.29-.83 2.258 2.258 0 0 1 .007-.877c.04-.263.169-.648.277-.857.108-.216.384-.594.62-.837.237-.256.655-.593.959-.776a7.222 7.222 0 0 1 1.079-.526c.297-.108.77-.243 1.046-.303.276-.054.796-.122 1.147-.149a7.638 7.638 0 0 1 1.35.04c.39.041.964.156 1.281.244a8 8 0 0 1 .978.357c.223.101.587.31.81.459.223.148.567.438.762.634.236.243.46.567.952 1.579l.067-.27c.034-.148.115-.513.169-.81.054-.296.121-.89.148-1.315a10.84 10.84 0 0 0-.034-1.552 20.678 20.678 0 0 0-.216-1.45 17.058 17.058 0 0 0-.485-1.721c-.25-.762-.56-1.47-1.127-2.598-.432-.85-.877-1.841-.992-2.192-.114-.351-.263-.884-.324-1.18-.06-.298-.128-.891-.148-1.316a7.478 7.478 0 0 1 .074-1.552c.068-.425.21-1.066.324-1.417.108-.35.35-.945.526-1.316.176-.37.527-.978.776-1.35.25-.37.648-.903.877-1.18.236-.276.796-.87 1.255-1.322A23.527 23.527 0 0 1 25.593 3.3c.372-.297 1.053-.79 1.518-1.106.466-.31.891-.607.945-.655.054-.047.378-.23.708-.391a8.88 8.88 0 0 1 .662-.31Zm-2.72 10.93c.055 0 .109.141.142.337.034.189.142.56.25.83.101.263.358.742.567 1.059.202.317.573.77.81 1.012.235.243.613.58.83.749.222.175.647.459.944.64.297.176.965.52 1.484.75.52.236 1.16.566 1.417.742.263.168.668.5.897.722.236.23.56.607.722.85.162.243.385.668.493.944.114.277.256.742.31 1.033.06.296.108.857.108 1.315 0 .432-.047 1.06-.101 1.397-.054.337-.156.816-.23 1.08-.074.262-.202.654-.283.876-.135.365-.155.385-.203.237a3.111 3.111 0 0 1-.053-.54c0-.203-.068-.75-.149-1.215a11.755 11.755 0 0 0-.31-1.383 13.383 13.383 0 0 0-.338-.944 7.814 7.814 0 0 0-.492-.911 6.159 6.159 0 0 0-.756-.91c-.25-.237-.843-.655-1.437-1.013a28.558 28.558 0 0 1-1.653-1.086c-.35-.263-.884-.735-1.18-1.046-.297-.31-.641-.702-.756-.87a7.68 7.68 0 0 1-.897-1.89c-.122-.397-.156-.742-.183-1.632-.027-.884-.02-1.133.048-1.133Zm1.816 8.54c.135.028.425.109.647.19.223.08.62.263.877.411.284.156.689.48 1.02.803.296.304.64.715.748.918.115.202.277.567.358.81.094.29.175.816.242 1.551.054.614.142 1.296.196 1.518.06.223.21.614.33.877.122.263.372.668.554.904.196.257.5.54.735.695.223.149.6.324.844.398.243.075.614.155.836.183.216.026.405.067.419.1.013.028-.135.17-.324.311a4.65 4.65 0 0 1-.695.432 3.678 3.678 0 0 1-.709.25c-.222.053-.654.074-1.08.053-.694-.027-.721-.033-1.53-.411-.46-.21-.85-.385-.878-.385-.033.007-.263-.216-.526-.485-.256-.27-.567-.675-.688-.898a6.934 6.934 0 0 1-.344-.81 5.13 5.13 0 0 1-.182-.775c-.034-.203-.061-1.235-.068-2.294-.013-1.525-.034-2.024-.128-2.395a4.97 4.97 0 0 0-.304-.877 4.441 4.441 0 0 0-.431-.722c-.142-.182-.23-.338-.203-.358.02-.02.149-.013.284.007ZM.96 30.37l1.963 1.114c.89.506 1.815 1.012 2.058 1.126.243.115.668.243.944.29.399.061.621.068 1.046 0a3.37 3.37 0 0 0 1.08-.35c.297-.142.83-.432 1.18-.641.351-.203.884-.466 1.181-.58.297-.115.756-.264 1.012-.331.263-.068.709-.155.999-.196.283-.04.782-.074 1.113-.074.324 0 .89.047 1.261.101.372.054.932.182 1.249.277.317.101.79.276 1.046.391.263.122.762.405 1.113.634.35.23.823.48 1.045.56.27.102.621.162 1.046.183.526.027.729.006 1.113-.108.264-.081 1.006-.432 1.653-.79.648-.35 1.43-.729 1.741-.843.304-.108.864-.27 1.248-.351.526-.108.925-.142 1.7-.142.77 0 1.174.034 1.687.142.371.08.904.223 1.18.324.277.094.71.283.966.405.25.128.735.411 1.08.64.336.223.788.466.99.547.27.101.54.142.98.148.39.007.735-.033.977-.108.203-.06.648-.29.979-.512.337-.223.823-.506 1.08-.634a7.932 7.932 0 0 1 1.011-.412c.297-.094.877-.21 1.282-.256a5.656 5.656 0 0 1 1.47-.007c.399.047.973.162 1.283.256.303.101.769.284 1.025.419.264.128.729.411 1.046.62.317.216.756.46.978.547.324.121.533.155 1.08.155.52 0 .762-.034 1.046-.142.202-.074 1.356-.688 2.563-1.363 1.208-.674 2.207-1.207 2.227-1.187.02.02-.54 2.442-1.242 5.384-.694 2.942-1.288 5.364-1.315 5.39-.02.028-.176.014-.344-.026-.169-.04-.715-.075-1.215-.075-.56 0-1.49.068-2.408.183-.83.094-1.727.222-2.483.39l-.843-.465c-.466-.263-1.539-.85-2.396-1.315-.85-.466-2.024-1.087-2.597-1.39a54.699 54.699 0 0 0-1.923-.945 15.623 15.623 0 0 0-1.45-.587 5.353 5.353 0 0 0-1.181-.215 3.695 3.695 0 0 0-1.113.074c-.277.06-.716.209-.979.337a6.016 6.016 0 0 0-.904.553 5.341 5.341 0 0 0-.85.837l-.843-.277c-.614-.202-.999-.283-1.417-.31-.317-.02-.742-.007-.945.034-.276.054-.479.047-.81-.027a5.62 5.62 0 0 0-.89-.095c-.256 0-.62.034-.81.074-.195.04-.688.176-1.841.547l-.169-.223c-.094-.121-.398-.405-.675-.62-.276-.216-.688-.486-.91-.587a4.962 4.962 0 0 0-.878-.304c-.344-.088-.668-.108-1.214-.088-.607.027-.864.075-1.417.257-.405.135-1.592.688-2.968 1.383a169.63 169.63 0 0 0-5.398 2.887l-1.484-.155c-.817-.08-1.775-.148-2.125-.148-.351 0-.85.04-1.114.08-.256.041-.472.068-.479.055-.006-.014-.56-2.375-1.228-5.25-.674-2.873-1.22-5.269-1.22-5.316.006-.067.114-.034.357.101Z" stroke="#fff" stroke-width=".982" mask="url(#a)"/><path fill-rule="evenodd" clip-rule="evenodd" d="M18.267 37.413c.189 0 .533.04.776.101.242.054.62.203.843.317.223.122.607.412.863.655.25.243.46.479.453.526 0 .04-.122.378-.264.742-.148.358-.37.884-.499 1.16-.128.277-.391.797-.587 1.148-.195.35-.567.958-.83 1.349-.256.391-.64.917-.85 1.18-.209.257-.62.73-.917 1.04-.297.31-.844.83-1.215 1.147-.37.323-1.207.978-1.855 1.464-.648.485-1.74 1.275-2.429 1.754-.688.472-1.977 1.342-2.867 1.93-1.316.863-1.64 1.045-1.714.978a29.592 29.592 0 0 1-.837-.925 57.775 57.775 0 0 1-1.356-1.619 47.976 47.976 0 0 1-1.106-1.43c-.358-.493-.452-.661-.365-.661.061 0 .223.027.351.067.128.034.54.095.911.128.371.04 1.133.088 1.687.115.6.02 1.437.007 2.058-.04.701-.055 1.234-.136 1.619-.25.317-.088.755-.263.978-.385.223-.128.587-.391.81-.594.263-.242.492-.532.647-.836.135-.256.284-.627.324-.816.04-.196.074-.486.074-.641 0-.162-.047-.486-.108-.729a4.237 4.237 0 0 0-.283-.81 4.251 4.251 0 0 0-.553-.769 5.434 5.434 0 0 0-.844-.715 5.045 5.045 0 0 0-.93-.472c-.25-.095-.453-.19-.453-.216 0-.034.648-.398 1.438-.823.782-.425 1.99-1.06 2.678-1.41a49.974 49.974 0 0 1 1.99-.979c.412-.182.898-.384 1.08-.452a6.95 6.95 0 0 1 .64-.168c.17-.027.46-.054.642-.061Zm14.91.148c.547.02.857.061 1.18.176.244.08 1.141.492 1.991.91a94.341 94.341 0 0 1 3.239 1.674c.93.5 1.97 1.066 2.934 1.606l-.384.256a5.567 5.567 0 0 0-.796.695c-.223.243-.486.6-.587.803a4.244 4.244 0 0 0-.392 1.552 3.603 3.603 0 0 0 .391 1.45c.102.189.365.52.588.742.256.257.607.513.944.688a5.93 5.93 0 0 0 1.08.419c.324.08.978.168 1.619.209.729.047 1.484.047 2.328 0a33.506 33.506 0 0 0 1.551-.108c.169-.02.486-.081.709-.135.222-.054.459-.115.526-.135.06-.014.115.007.115.04 0 .034-.29.453-.648.932a76.897 76.897 0 0 1-1.444 1.801c-.432.52-1.18 1.35-2.53 2.74l-1.754-1.141a217.97 217.97 0 0 1-2.8-1.835c-.573-.385-1.457-.985-1.956-1.336-.5-.35-1.323-.945-1.822-1.316-.5-.37-1.201-.91-1.552-1.194a27.23 27.23 0 0 1-1.147-.992 15.73 15.73 0 0 1-1.08-1.16 21.852 21.852 0 0 1-1.166-1.579c-.331-.492-.85-1.39-1.154-2.004a21.472 21.472 0 0 1-.992-2.327l.358-.358c.195-.196.506-.452.695-.573.182-.122.532-.284.775-.371.378-.129.547-.149 1.181-.129Zm-9.095 1.127c.203 0 .21.014.122.115a5.644 5.644 0 0 0-.297.56c-.115.243-.25.708-.31 1.045-.054.338-.102.952-.102 2.126l-.452.209a4.515 4.515 0 0 0-.715.384 2.13 2.13 0 0 0-.486.52 4.486 4.486 0 0 0-.39.843c-.095.277-.21.823-.257 1.215-.04.398-.061.992-.04 1.35.026.35.107.863.181 1.126.075.27.237.722.574 1.498l-.48.56c-.262.31-.809.924-1.22 1.37a38.573 38.573 0 0 1-1.815 1.794 93.573 93.573 0 0 1-2.085 1.862c-.553.472-1.511 1.268-2.125 1.768-.958.776-1.134.89-1.248.836-.075-.04-.56-.391-1.08-.782a42.368 42.368 0 0 1-1.62-1.269c-.37-.31-1.031-.917-2.266-2.118l2.044-1.356a127.463 127.463 0 0 0 3.529-2.422 70.632 70.632 0 0 0 2.429-1.822 24.216 24.216 0 0 0 1.558-1.356c.338-.33.81-.83 1.053-1.107.236-.276.647-.81.91-1.18.264-.371.662-.979.884-1.35.216-.37.533-.93.689-1.248.162-.317.479-1.032 1.113-2.597l.843-.284c.466-.162.945-.29 1.06-.29Zm2.787.068c.35 0 .81.047 1.012.1.202.055.593.183 1.363.473l.263.709c.141.39.486 1.16.762 1.72a22.26 22.26 0 0 0 1.107 1.923c.323.499.843 1.214 1.14 1.585.297.371.877.999 1.275 1.39.405.391 1.1.999 1.545 1.35.445.357 1.208.93 1.687 1.288.485.35 1.153.83 1.484 1.06.337.236 1.41.964 2.395 1.619.985.654 2.287 1.51 3.994 2.604l-.357.33a53.68 53.68 0 0 1-1.174 1.006c-.446.37-1.1.89-1.45 1.153-.352.264-1.02.73-1.485 1.04-.466.303-.864.553-.89.553-.034 0-.763-.567-1.62-1.262a174.94 174.94 0 0 1-2.213-1.801c-.35-.297-.654-.56-.675-.58-.02-.02-.35-.311-.742-.648a59.287 59.287 0 0 1-1.558-1.417 32.714 32.714 0 0 1-1.45-1.444 44.13 44.13 0 0 1-1.181-1.316 64.525 64.525 0 0 1-1.357-1.653c-.425-.54-1.214-1.572-1.754-2.293a166.402 166.402 0 0 1-1.707-2.362c-.405-.573-.762-1.14-.796-1.248-.04-.121-.054-.54-.027-1.046.027-.465.095-1.032.149-1.268.054-.23.161-.533.229-.675.067-.135.21-.324.31-.418.102-.095.385-.236.635-.317.337-.115.607-.155 1.086-.155ZM4.739 41.73c.351 0 1.417.088 2.362.196.944.108 1.889.242 2.091.296.203.054.54.162.742.237.203.074.554.256.776.398.223.141.54.411.702.593.168.182.364.466.438.635.068.168.142.512.162.775.027.419.007.527-.162.905-.121.263-.31.54-.499.708a3.991 3.991 0 0 1-.607.459 4.216 4.216 0 0 1-.722.317 5.721 5.721 0 0 1-1.046.209c-.344.04-1.187.074-1.875.074-.689 0-1.613-.034-2.058-.074-.445-.04-.992-.122-1.215-.176a5.366 5.366 0 0 1-.877-.337 4.24 4.24 0 0 1-.64-.384c-.095-.081-.412-.527-1.228-1.835l.027-.439c.02-.304.087-.56.222-.843.108-.223.344-.547.52-.729.182-.175.54-.418.816-.553a5.05 5.05 0 0 1 .958-.33 7.567 7.567 0 0 1 1.113-.102Zm43.74.202c.506-.006.965.034 1.282.102.263.06.668.195.89.296.223.108.567.338.77.52.236.209.431.472.573.762.182.378.209.506.209.979 0 .492-.02.58-.25 1.012-.141.263-.398.62-.573.803a4.797 4.797 0 0 1-.661.546 4.522 4.522 0 0 1-.81.391c-.256.095-.742.21-1.08.257-.39.06-1.295.087-2.563.087-1.6 0-2.051-.02-2.463-.114a5.28 5.28 0 0 1-.978-.344 4.037 4.037 0 0 1-.776-.493 2.903 2.903 0 0 1-.506-.634c-.182-.324-.202-.425-.202-.938 0-.479.027-.634.175-.944.095-.203.337-.533.54-.736.25-.243.56-.452.971-.654.338-.162.864-.351 1.181-.432.317-.074 1.228-.21 2.024-.297a30.947 30.947 0 0 1 2.247-.169Zm-24.7 1.566c.027.006.479.62 1.005 1.362.526.743 1.309 1.822 1.734 2.396.432.573 1.2 1.565 1.707 2.192a64.649 64.649 0 0 0 1.76 2.092c.466.52 1.188 1.282 1.613 1.687a99.76 99.76 0 0 0 1.647 1.524c.485.432 1.288 1.127 1.787 1.552.5.425 1.512 1.255 3.59 2.928l-.5.263c-.27.149-.87.439-1.335.655-.466.209-1.255.54-1.755.722-.499.188-1.288.452-1.754.587-.465.134-.897.236-.958.222-.067-.013-.668-.553-1.35-1.2a43.463 43.463 0 0 1-1.976-2.025 84.89 84.89 0 0 1-3.11-3.744c-.412-.52-.911-1.174-1.114-1.45-.256-.338-.58-.959-1.005-1.89a127.61 127.61 0 0 0-.93-2.024c-.163-.35-.379-.87-.473-1.147-.142-.412-.182-.668-.202-1.35-.014-.485.006-1.059.053-1.349.048-.276.149-.674.223-.877.081-.202.223-.459.317-.566.095-.108.351-.284.574-.392.222-.101.425-.182.452-.168Zm-1.417 7.198c.034 0 .256.453.5 1.012.235.554.424 1.02.418 1.033-.014.013-.23.108-.493.216-.33.141-.587.31-.857.573-.317.31-.405.445-.526.843a5.356 5.356 0 0 0-.182 1.046 3.59 3.59 0 0 0 .08 1.113c.061.297.223.797.352 1.114.128.317.323.755.634 1.383l-1.1 1.1c-.607.6-1.147 1.113-1.2 1.126-.055.02-.406-.067-.777-.196a30.504 30.504 0 0 1-1.518-.587 25.618 25.618 0 0 1-1.62-.755 38.812 38.812 0 0 1-1.436-.776c-.358-.21-.655-.405-.655-.438 0-.027.237-.237.527-.466.283-.23.971-.803 1.531-1.268.553-.466 1.424-1.208 1.923-1.647.5-.445 1.491-1.383 2.193-2.091.708-.709 1.477-1.525 1.713-1.815.237-.283.46-.52.493-.52Zm1.356 2.976c.067-.007.25.168.439.411.175.23.85 1.086 1.504 1.903.655.823 1.579 1.943 2.058 2.503a46.12 46.12 0 0 0 2.118 2.24c.689.681 1.235 1.241 1.215 1.262-.02.013-.385.074-.81.135a32.57 32.57 0 0 1-1.484.175c-.391.034-1.268.06-1.957.067-.688 0-1.308-.02-1.383-.04-.087-.02-.337-.378-.688-.958a70.91 70.91 0 0 1-1.073-1.903c-.29-.54-.681-1.315-.877-1.72-.195-.405-.405-.924-.465-1.147a5.246 5.246 0 0 1-.115-.91c0-.278.034-.642.081-.81.047-.17.121-.385.175-.493.054-.101.21-.25.351-.337.135-.088.371-.21.52-.27.148-.061.324-.108.391-.108Zm-.965 6.274c.02-.007.223.338.452.75.236.417.52.923.864 1.497l-.439-.047a16.409 16.409 0 0 1-1.248-.216c-.445-.095-.924-.196-1.316-.304l.83-.836c.452-.46.837-.844.857-.844Z" fill="#fff"/></svg>